<mxfile host="app.diagrams.net" agent="Mozilla/5.0 (Macintosh; Intel Mac OS X 10_15_7) AppleWebKit/537.36 (KHTML, like Gecko) Chrome/130.0.0.0 Safari/537.36" version="24.8.3">
  <diagram name="Page-1" id="ZKBmbammJM1EKB37tvsh">
    <mxGraphModel dx="1546" dy="825" grid="1" gridSize="10" guides="1" tooltips="1" connect="1" arrows="1" fold="1" page="1" pageScale="1" pageWidth="850" pageHeight="1100" math="0" shadow="0">
      <root>
        <mxCell id="0" />
        <mxCell id="1" parent="0" />
        <mxCell id="dV5V6p4PPA7qp1u5CN09-117" value="" style="group" parent="1" vertex="1" connectable="0">
          <mxGeometry x="831" y="484" width="69.72" height="65" as="geometry" />
        </mxCell>
        <UserObject label="Internet Gateway" placeholders="1" name="Variable" id="dV5V6p4PPA7qp1u5CN09-118">
          <mxCell style="text;html=1;strokeColor=none;fillColor=#F5F4F2;align=center;verticalAlign=middle;whiteSpace=wrap;overflow=hidden;container=0;" parent="dV5V6p4PPA7qp1u5CN09-117" vertex="1">
            <mxGeometry x="13.86" y="36" width="51" height="34" as="geometry" />
          </mxCell>
        </UserObject>
        <mxCell id="dV5V6p4PPA7qp1u5CN09-119" value="" style="shape=image;aspect=fixed;image=data:image/svg+xml,PHN2ZyB4bWxucz0iaHR0cDovL3d3dy53My5vcmcvMjAwMC9zdmciIHZpZXdCb3g9IjAgMCAzOS4zMSA0Mi44MyI+PGRlZnM+PHN0eWxlPi5jbHMtMXtmaWxsOiNmZmY7fS5jbHMtMntmaWxsOiMyYzU5Njc7fTwvc3R5bGU+PC9kZWZzPjx0aXRsZT5kcmF3aW9Bc3NldCAxPC90aXRsZT48ZyBpZD0iTGF5ZXJfMiIgZGF0YS1uYW1lPSJMYXllciAyIj48ZyBpZD0iTGF5ZXJfMS0yIiBkYXRhLW5hbWU9IkxheWVyIDEiPjxwYXRoIGNsYXNzPSJjbHMtMSIgZD0iTTE1LjU1LDM4LDE3LDM2LjU5Yy0uMy0uMDUtLjYtLjExLS45LS4xOWwtLjM5LS4wOWMtLjI3LS4wNy0uNTMtLjE1LS43OS0uMjRhNSw1LDAsMCwxLS41MS0uMTdsLS42My0uMjUtLjYzLS4yNy0uNDEtLjJjLS4zMS0uMTYtLjU2LS4yOS0uOC0uNDNsLS4yOS0uMThjLS4zMS0uMTktLjU4LS4zNi0uODMtLjU0bC0uNDMtLjMxLS40My0uMzItLjQxLS4zNCwwLDBBMTUuNDgsMTUuNDgsMCwwLDEsOCwzMS41M0g4bC0uMzYtLjQxLS4zMi0uNDNMNywzMC4yN2MtLjE4LS4yNi0uMzUtLjUyLS41Mi0uNzlsLS4yLS4zNGMtLjE0LS4yNC0uMjctLjQ4LS40LS43M3MtLjE3LS4zMy0uMjMtLjQ3LS4xOS0uNDItLjI3LS42My0uMTgtLjQyLS4yNS0uNjNBNCw0LDAsMCwxLDUsMjYuMjNjLS4xMS0uMzItLjE5LS41OC0uMjYtLjg1TDQuNjYsMjVjLS4wNy0uMy0uMTQtLjYxLS4xOS0uOTJsLS4wOC0uNWMwLS4xOC0uMDYtLjM2LS4wOC0uNTVsMC0uNDhILjVWMjAuMjlINC4yOGwwLS40OGMwLS4xOS4wNS0uMzcuMDgtLjU1bC4wOC0uNWMwLS4zMS4xMi0uNjIuMi0uOTNsLjA5LS4zOGMuMDctLjI3LjE1LS41My4yNC0uOHMuMTEtLjMzLjE2LS41LjE3LS40My4yNi0uNjQuMTctLjQxLjI3LS42MmwuMjEtLjQzYy4xNS0uMjkuMjgtLjU0LjQyLS43N2wuMjEtLjM1cS4yNC0uMzkuNTEtLjc4bC4zMS0uNDJjLjEtLjE1LjIxLS4zLjMyLS40NEw4LDExLjI4bDAsMEExNC40NCwxNC40NCwwLDAsMSw5LjU1LDkuNzloMGwuNC0uMzUuNDUtLjMzLjQtLjNjLjI2LS4xOC41My0uMzUuNzktLjUxbC4zNC0uMjEuNzMtLjQuMSwwLC4zOC0uMTlxLjMxLS4xNS42My0uMjdsLjYzLS4yNi40NS0uMTUuODUtLjI1LjM4LS4xTDE3LDYuMjMsMTUuNTUsNC44MWw0LjEtNC4xLDQuMSw0LjFMMjIuMzMsNi4yM2wuOS4xOS4zOS4xYy4yNy4wNy41My4xNS43OS4yNGwuNTEuMTYuNjMuMjYuNjMuMjcuMzkuMTkuODEuNDQuMy4xOGMuMzEuMTkuNTcuMzYuODMuNTRsLjQzLjMxLjQzLjMyLjQxLjM0LDAsMGExNS4yNywxNS4yNywwLDAsMSwxLjUxLDEuNWgwbC4zNi40Mi4zMy40NC4zLjQycS4yNy4zOS41MS43OGwuMjEuMzRjLjE0LjI1LjI3LjQ5LjM5LjczbC4yNC40OHEuMTUuMzEuMjcuNjNjLjA5LjIxLjE4LjQyLjI1LjYzcy4xMS4zMS4xNi40Ny4xOC41Ni4yNS44M2wuMDkuMzljLjA4LjMuMTQuNjEuMi45MmwuMDguNWE0Ljg2LDQuODYsMCwwLDEsLjA3LjU1bDAsLjQ4aDMuNzd2Mi4yNUgzNUwzNSwyM2E1LDUsMCwwLDEtLjA3LjU0bC0uMDguNTFjLS4wNi4zMS0uMTIuNjItLjIuOTJsLS4wOS4zOWMtLjA3LjI3LS4xNS41My0uMjQuNzlhNSw1LDAsMCwxLS4xNy41MWMtLjA3LjIxLS4xNi40Mi0uMjUuNjNzLS4xNy40Mi0uMjcuNjNsLS4yMi40NGMtLjE0LjI4LS4yNy41Mi0uNDEuNzZsLS4yMS4zNGMtLjE2LjI3LS4zMy41My0uNTEuNzlsLS4zLjRhNC44NCw0Ljg0LDAsMCwxLS4zMy40NmwtLjM1LjQzLDAsMEExNS4yNywxNS4yNywwLDAsMSwyOS43NiwzM2gwbC0uNC4zNS0uNDMuMzEtLjQzLjMyYy0uMjYuMTgtLjUyLjM1LS43OS41MWwtLjM0LjIxYy0uMjQuMTQtLjQ4LjI3LS43My4zOWwtLjQ3LjI0LS42My4yNy0uNjMuMjUtLjUxLjE3Yy0uMjYuMDktLjUyLjE3LS43OS4yNGwtLjM5LjA5Yy0uMy4wOC0uNi4xNC0uOS4xOUwyMy43NSwzOGwtNC4xLDQuMVptNS4yMy0uMTlMMjIsMzYuNjVsLS4xNSwwYTUsNSwwLDAsMS0uNTQuMDdsLS40OCwwWm0tMi4yNSwwdi0xbC0uNDgsMGE0Ljg2LDQuODYsMCwwLDEtLjU1LS4wN2wtLjE0LDBaTTIxLjI2LDYuMDdsLjU0LjA4LjE1LDBMMjAuNzgsNVY2Wm0tMy45LjEuMTQsMCwuNTUtLjA4TDE4LjUzLDZWNVoiLz48cGF0aCBjbGFzcz0iY2xzLTEiIGQ9Ik0xOS42NSwxLjQxbDEuNTEsMS41MS4wNS4wNSwxLjg0LDEuODQtLjg4Ljg4LTEtMS0uOTMtLjk0VjYuNTJsLjkzLjA3djBsLjcyLjExLjMsMGMuMywwLC41OS4xMi44OS4xOWwuMzcuMDkuNzcuMjMuNDkuMTYuNjEuMjVMMjYsNy45bC40Ni4yM2MuMjQuMTIuNDcuMjQuNy4zOGwuMzMuMmMuMjYuMTYuNTIuMzIuNzcuNWwuMjMuMThjLjIuMTQuNC4yOC41OS40M2gwYTE1LjI1LDE1LjI1LDAsMCwxLDIuMiwyLjJoMGMuMTUuMTkuMjkuMzkuNDMuNThsLjE4LjI0Yy4xOC4yNS4zNC41MS41Ljc3cy4xMy4yMS4yLjMzLjI2LjQ2LjM4LjcuMTUuMzEuMjMuNDYuMTguNC4yNi42MS4xNy40LjI0LjYxLjExLjMzLjE3LjQ5LjE2LjUxLjIzLjc3bC4wOS4zN2MuMDcuMy4xMy41OS4xOS44OSwwLC4xLDAsLjIsMCwuM3MuMDguNDguMTEuNzJoMHEwLC40Ny4wNi45M2gzLjc3VjIySDM0LjU0cTAsLjQ3LS4wNi45M2gwYzAsLjI0LS4wNy40OC0uMTEuNzJzMCwuMiwwLC4zYy0uMDYuMy0uMTIuNTktLjE5Ljg5bC0uMDkuMzdjLS4wNy4yNi0uMTUuNTEtLjIzLjc3cy0uMTEuMzItLjE3LjQ5LS4xNi40MS0uMjQuNjEtLjE3LjQxLS4yNi42MWwtLjIzLjQ2LS4zOC43LS4yLjMzYy0uMTYuMjYtLjMyLjUxLS41Ljc2bC0uMTguMjVjLS4xNC4xOS0uMjguMzktLjQzLjU4aDBBMTUuMjUsMTUuMjUsMCwwLDEsMjksMzNoMGMtLjE5LjE1LS4zOS4yOS0uNTkuNDNsLS4yMy4xOGMtLjI1LjE4LS41MS4zNC0uNzcuNWwtLjMzLjJjLS4yMy4xMy0uNDYuMjYtLjcuMzhsLS40Ni4yMy0uNjEuMjYtLjYxLjI0LS40OS4xNy0uNzcuMjMtLjM3LjA5LS44OS4xOS0uMywwLS43Mi4xMXYwcS0uNDcsMC0uOTMuMDZWMzlsLjkzLS45MywxLTEsLjg4Ljg4LTEuODQsMS44NC0uNjguNjctLjg4Ljg4LS44OC0uODgtLjY3LS42N0wxNi4yNiwzOGwuODgtLjg4LDEsMUwxOSwzOVYzNi4zcS0uNDcsMC0uOTMtLjA2djBsLS43Mi0uMTEtLjMsMC0uODktLjE5LS4zNy0uMDktLjc3LS4yMy0uNDktLjE3Yy0uMjEtLjA3LS40MS0uMTYtLjYxLS4yNGwtLjYxLS4yNi0uNDYtLjIzYy0uMjQtLjEyLS40Ny0uMjUtLjctLjM4bC0uMzMtLjJjLS4yNi0uMTYtLjUyLS4zMi0uNzctLjVsLS4yMy0uMThjLS4yLS4xNC0uNC0uMjgtLjU5LS40M2gwYTE1LjI1LDE1LjI1LDAsMCwxLTIuMi0yLjJoMGMtLjE1LS4xOS0uMjktLjM5LS40My0uNTlzLS4xMi0uMTUtLjE4LS4yNGMtLjE4LS4yNS0uMzQtLjUtLjUtLjc2LS4wNy0uMTEtLjE0LS4yMi0uMi0uMzNzLS4yNi0uNDctLjM4LS43bC0uMjMtLjQ2Yy0uMDktLjItLjE4LS40MS0uMjYtLjYxcy0uMTctLjQxLS4yNS0uNjEtLjExLS4zMy0uMTYtLjQ5LS4xNi0uNTEtLjIzLS43N2wtLjA5LS4zN2MtLjA3LS4zLS4xMy0uNTktLjE5LS45LDAtLjA5LDAtLjE5LDAtLjI5cy0uMDgtLjQ4LS4xMS0uNzJoMGMwLS4zMSwwLS42Mi0uMDctLjkzSDFWMjAuNzlINC43NmMwLS4zMSwwLS42Mi4wNy0uOTNoMGMwLS4yNC4wNy0uNDguMTEtLjcyczAtLjIsMC0uM2MuMDYtLjMuMTItLjU5LjE5LS44OWwuMDktLjM3Yy4wNy0uMjYuMTUtLjUyLjIzLS43N2wuMTYtLjQ5Yy4wOC0uMjEuMTYtLjQxLjI1LS42MXMuMTctLjQxLjI2LS42MS4xNS0uMzEuMjMtLjQ2LjI0LS40Ny4zOC0uN0EzLjc5LDMuNzksMCwwLDEsNywxMy42Yy4xNi0uMjUuMzItLjUxLjUtLjc2bC4xOC0uMjRjLjE0LS4xOS4yOC0uMzkuNDMtLjU4aDBhMTUuMjUsMTUuMjUsMCwwLDEsMi4yLTIuMmgwbC41OC0uNDMuMjQtLjE4Yy4yNS0uMTguNTEtLjM0Ljc3LS41YTMuNjIsMy42MiwwLDAsMSwuMzMtLjJjLjIzLS4xMy40Ni0uMjYuNy0uMzhsLjQ2LS4yM0wxNCw3LjY0bC42MS0uMjUuNDktLjE2TDE1LjgyLDdsLjM3LS4wOWMuMy0uMDcuNTktLjE0Ljg5LS4xOWwuMywwLC43Mi0uMTF2MEwxOSw2LjUyVjMuNzlsLS45My45NC0xLDEtLjg4LS44OEwxOC4xLDNsMC0uMDUsMS41LTEuNTFtMC0xLjQxTDE5LC43MWwtMS41LDEuNS0uMDYsMEwxNS41NSw0LjFsLS43LjcxLjcuNzEuNDIuNDFoMGwtLjExLDBMMTUuNTYsNmwtLjgyLjI1LS4wNSwwLS40Ny4xNS0uNjYuMjZMMTIuOTIsN2wtLjQyLjIxLS4wNywwYy0uMjYuMTMtLjUxLjI2LS43NS40bC0uMjYuMTYtLjEuMDZjLS4yNy4xNy0uNTQuMzQtLjgxLjUzYTEuMDksMS4wOSwwLDAsMC0uMTcuMTNsLS4wOS4wNi0uMTYuMTJMOS42Myw5bC0uODUuNjksMCwwYy0uMjguMjYtLjU1LjUyLS44MS44bDAsMC0uNzEuODQtLjM0LjQ1TDYuODIsMTJsLS4wNi4wOWExLjA5LDEuMDksMCwwLDAtLjEzLjE3Yy0uMTkuMjctLjM2LjU0LS41My44MWwwLC4wOS0uMTcuMjdjLS4xNC4yNC0uMjcuNDktLjQuNzVzLS4xNy4zMy0uMjUuNDktLjE5LjQzLS4yOC42NC0uMTcuNDQtLjI1LjY2LS4xMS4zMS0uMTYuNDZsMCwuMDZjLS4wOS4yNy0uMTcuNTQtLjI1LjgyLDAsLjEsMCwuMi0uMDcuM2wwLC4xYy0uMDguMzEtLjE1LjYzLS4yLDFsMCwuMjEsMCwuMSwwLC4yMWMwLC4xOS0uMDYuMzctLjA4LjU3djBIMFYyM0gzLjgxdjBjMCwuMTkuMDUuMzguMDguNTdsMCwuMkw0LDI0bDAsLjJjLjA1LjMzLjEyLjY0LjIsMWwwLC4xYzAsLjEsMCwuMi4wNy4zLjA4LjI4LjE2LjU1LjI1LjgybDAsMCwuMTUuNDhjLjA5LjIyLjE3LjQ0LjI2LjY1cy4xOC40NC4yOC42NWwuMjMuNDVjLjE1LjI5LjI4LjU1LjQyLjc5bC4xNi4yNi4wNi4xYy4xNy4yNy4zNC41NC41My44MWwuMTMuMTguMDYuMDguMTIuMTZjLjExLjE2LjIyLjMxLjM0LjQ2bC43Ljg1LDAsMHEuMzkuNDIuODEuODFsMCwwLC44My43LjQ1LjM0LjE3LjEyLjA5LjA3LjE2LjEyYy4yNy4xOS41NS4zNi44Mi41M2wuMDkuMDUuMjYuMTZjLjI1LjE1LjUuMjguNzYuNDFsLjA1LDAsLjQ0LjIyLjY1LjI4LjY1LjI2LjQ3LjE2LjA1LDBjLjI3LjA5LjU0LjE3LjgyLjI0bC4zLjA4LjEsMGgwbC0uNDIuNDItLjcuNzEuNy43MSwxLjg0LDEuODQuNjguNjcuODguODguNy43MS43MS0uNzEuODgtLjg4LjY4LS42NywxLjgzLTEuODQuNzEtLjcxLS43MS0uNzEtLjQyLS40MmgwbC4xLDAsLjMtLjA4Yy4yOC0uMDcuNTUtLjE1LjgyLS4yNGwuNTEtLjE3LjY3LS4yN2MuMjEtLjA4LjQzLS4xOC42NC0uMjhzLjI5LS4xNC40My0uMjFsLjA2LDBjLjI1LS4xMy41MS0uMjYuNzUtLjQxTDI3LjksMzUsMjgsMzVjLjI3LS4xNy41NC0uMzQuODEtLjUzbC4xOC0uMTMuMDgtLjA2LjE2LS4xMi40Ni0uMzQuODQtLjY5LDAsMGMuMjctLjI2LjU0LS41Mi44LS44bDAsMCwuNzItLjg1Yy4xMi0uMTUuMjMtLjMxLjM1LS40N2wuMTEtLjE1LjA2LS4wOC4xMy0uMThjLjE5LS4yNy4zNi0uNTQuNTMtLjgxbDAtLjA5LjE2LS4yNmMuMTUtLjI1LjI4LS41MS40MS0uNzZzLjE3LS4zNC4yNC0uNDkuMi0uNDMuMjgtLjY1LjE4LS40My4yNi0uNjUuMTEtLjMyLjE2LS40OGwwLS4wNXEuMTQtLjM5LjI0LS44MWMwLS4xLDAtLjIuMDgtLjNsMC0uMWMuMDgtLjMyLjE1LS42My4yLS45NWwwLS4yMiwwLS4xLDAtLjJjMC0uMTkuMDYtLjM4LjA4LS41N3YwaDMuODFWMTkuNzlIMzUuNDl2MGMwLS4yLS4wNS0uMzgtLjA4LS41N2wwLS4yLDAtLjEsMC0uMjJjMC0uMzItLjEyLS42My0uMi0xbDAtLjExYzAtLjEsMC0uMTktLjA3LS4yOS0uMDctLjI4LS4xNS0uNTUtLjI0LS44MmwwLS4wNWMtLjA1LS4xNi0uMS0uMzEtLjE2LS40N3MtLjE3LS40NC0uMjYtLjY1LS4xOC0uNDQtLjI4LS42NS0uMTQtLjMtLjIyLS40NWMtLjE1LS4zLS4yOC0uNTUtLjQyLS43OWwtLjE2LS4yNi0uMDYtLjFjLS4xNy0uMjctLjM0LS41NC0uNTMtLjgxbC0uMTMtLjE3TDMyLjQ5LDEybC0uMTItLjE2Yy0uMTEtLjE2LS4yMi0uMzEtLjM0LS40NmwtLjctLjg2LDAsMGMtLjI2LS4yOC0uNTMtLjU1LS44LS44bDAsMEwyOS42OCw5bC0uNDYtLjM0LS4xNi0uMTJMMjksOC41MmwtLjE4LS4xM2MtLjI3LS4xOS0uNTQtLjM2LS44Mi0uNTNsLS4wOC0uMDUtLjI3LS4xN2MtLjI0LS4xNC0uNS0uMjctLjc1LS40bC0uMDYsMEwyNi4zOSw3bC0uNjUtLjI4LS42NS0uMjUtLjQ3LS4xNi0uMDUsMEwyMy43NSw2LDIzLjQ1LDZsLS4xLDBoMGwuNDItLjQxLjcxLS43MS0uNzEtLjcxTDIxLjkyLDIuMjZsLS4wNSwwTDIwLjM2LjcxLDE5LjY1LDBaIi8+PHBhdGggY2xhc3M9ImNscy0yIiBkPSJNMjEuMjEsMzV2MS4yNkExNSwxNSwwLDAsMCwzNC41LDIzSDMzLjI1QTEzLjcxLDEzLjcxLDAsMCwxLDIxLjIxLDM1WiIvPjxwYXRoIGNsYXNzPSJjbHMtMiIgZD0iTTYuMDYsMjNINC44MUExNSwxNSwwLDAsMCwxOC4xLDM2LjI2VjM1QTEzLjcxLDEzLjcxLDAsMCwxLDYuMDYsMjNaIi8+PHBhdGggY2xhc3M9ImNscy0yIiBkPSJNMzMuMjUsMTkuODZIMzQuNUExNSwxNSwwLDAsMCwyMS4yMSw2LjU3VjcuODJBMTMuNzMsMTMuNzMsMCwwLDEsMzMuMjUsMTkuODZaIi8+PHBhdGggY2xhc3M9ImNscy0yIiBkPSJNMTguMSw3LjgyVjYuNTdBMTUsMTUsMCwwLDAsNC44MSwxOS44Nkg2LjA2QTEzLjczLDEzLjczLDAsMCwxLDE4LjEsNy44MloiLz48cG9seWdvbiBjbGFzcz0iY2xzLTIiIHBvaW50cz0iMjAuMjggMy43OSAyMS4yMSA0LjczIDIyLjE3IDUuNjkgMjMuMDUgNC44MSAyMS4yMSAyLjk3IDIxLjE2IDIuOTIgMTkuNjUgMS40MSAxOC4xNSAyLjkyIDE4LjEgMi45NyAxNi4yNiA0LjgxIDE3LjE0IDUuNjkgMTguMSA0LjczIDE5LjAzIDMuNzkgMTkuMDMgMzkuMDMgMTguMSAzOC4xIDE3LjE0IDM3LjE0IDE2LjI2IDM4LjAyIDE4LjEgMzkuODYgMTguNzcgNDAuNTMgMTkuNjUgNDEuNDEgMjAuNTMgNDAuNTMgMjEuMjEgMzkuODYgMjMuMDUgMzguMDIgMjIuMTcgMzcuMTQgMjEuMjEgMzguMSAyMC4yOCAzOS4wMyAyMC4yOCAzLjc5Ii8+PHBvbHlnb24gY2xhc3M9ImNscy0yIiBwb2ludHM9IjIyLjcxIDIwLjc5IDIzLjY0IDE5Ljg2IDI0LjYgMTguOSAyMy43MiAxOC4wMiAyMS44OCAxOS44NiAyMC4zMyAyMS40MSAyMS44OCAyMi45NyAyMy43MiAyNC44MSAyNC42IDIzLjkzIDIzLjY0IDIyLjk3IDIyLjcxIDIyLjA0IDM4LjMxIDIyLjA0IDM4LjMxIDIwLjc5IDIyLjcxIDIwLjc5Ii8+PHBvbHlnb24gY2xhc3M9ImNscy0yIiBwb2ludHM9IjE2LjYgMjIuMDQgMTUuNjcgMjIuOTcgMTQuNzEgMjMuOTMgMTUuNTkgMjQuODEgMTguMSAyMi4yOSAxOC45OCAyMS40MSAxOC4xIDIwLjU0IDE1LjU5IDE4LjAyIDE0LjcxIDE4LjkgMTUuNjcgMTkuODYgMTYuNiAyMC43OSAxIDIwLjc5IDEgMjIuMDQgMTYuNiAyMi4wNCIvPjwvZz48L2c+PC9zdmc+;" parent="dV5V6p4PPA7qp1u5CN09-117" vertex="1">
          <mxGeometry x="9" y="-30" width="60.72" height="66" as="geometry" />
        </mxCell>
        <mxCell id="dV5V6p4PPA7qp1u5CN09-162" value="&lt;font size=&quot;1&quot;&gt;&lt;b style=&quot;font-size: 12px&quot;&gt;OCI Region say PHX with logical CPE, Site to Site VPN &amp;amp; DRG setup&lt;/b&gt;&lt;/font&gt;" style="rounded=1;whiteSpace=wrap;html=1;labelBackgroundColor=none;gradientColor=none;fontFamily=Oracle Sans;fontSize=12;align=left;strokeColor=#9E9892;fillColor=#F5F4F2;verticalAlign=top;fontColor=#312D2A;arcSize=1;spacingRight=5;spacingLeft=5;" parent="1" vertex="1">
          <mxGeometry x="1260" y="223.48" width="810" height="540" as="geometry" />
        </mxCell>
        <mxCell id="dV5V6p4PPA7qp1u5CN09-163" value="&lt;b&gt;&lt;font color=&quot;#bb511c&quot;&gt;VCN&lt;/font&gt;&lt;/b&gt;" style="whiteSpace=wrap;html=1;strokeWidth=2;dashed=1;align=left;fontFamily=Oracle Sans;verticalAlign=top;fillColor=none;fontColor=#AE562C;strokeColor=#AE562C;spacingLeft=5;" parent="1" vertex="1">
          <mxGeometry x="1410" y="296.98" width="603.87" height="422.67" as="geometry" />
        </mxCell>
        <mxCell id="dV5V6p4PPA7qp1u5CN09-164" style="edgeStyle=orthogonalEdgeStyle;rounded=0;orthogonalLoop=1;jettySize=auto;html=1;exitX=0.5;exitY=1;exitDx=0;exitDy=0;labelBackgroundColor=none;startArrow=none;startFill=0;endArrow=none;endFill=0;strokeColor=#2c5967;fontFamily=Oracle Sans;fontSize=10.5;fontColor=#312D2A;" parent="1" edge="1">
          <mxGeometry x="-16.29447852760736" y="20.29787234042553" as="geometry">
            <mxPoint x="1728.20245398773" y="734.3097872340426" as="sourcePoint" />
            <mxPoint x="1728.20245398773" y="734.3097872340426" as="targetPoint" />
          </mxGeometry>
        </mxCell>
        <mxCell id="dV5V6p4PPA7qp1u5CN09-165" value="&lt;font color=&quot;#bb511c&quot; style=&quot;font-weight: bold&quot;&gt;Subnet B&lt;/font&gt;&lt;br&gt;&lt;font color=&quot;#312d2a&quot;&gt;12.0.0.0/16&lt;/font&gt;" style="whiteSpace=wrap;html=1;strokeWidth=1;dashed=1;align=left;fontFamily=Oracle Sans;verticalAlign=top;fontColor=#AE562C;strokeColor=#AE562C;fillColor=none;spacingLeft=5;" parent="1" vertex="1">
          <mxGeometry x="1530" y="375.8" width="444.15" height="268.18" as="geometry" />
        </mxCell>
        <mxCell id="dV5V6p4PPA7qp1u5CN09-166" value="" style="shape=image;verticalLabelPosition=bottom;verticalAlign=top;imageAspect=0;aspect=fixed;image=data:image/svg+xml,PHN2ZyB4bWxucz0iaHR0cDovL3d3dy53My5vcmcvMjAwMC9zdmciIHhtbG5zOnhsaW5rPSJodHRwOi8vd3d3LnczLm9yZy8xOTk5L3hsaW5rIiB2ZXJzaW9uPSIxLjEiIGlkPSJMYXllcl8xIiB4PSIwcHgiIHk9IjBweCIgdmlld0JveD0iMCAwIDQzLjUgNDIiIHN0eWxlPSJlbmFibGUtYmFja2dyb3VuZDpuZXcgMCAwIDQzLjUgNDI7IiB4bWw6c3BhY2U9InByZXNlcnZlIiB3aWR0aD0iNDMuNSIgaGVpZ2h0PSI0MiI+JiN4YTs8Zz4mI3hhOwk8Zz4mI3hhOwkJPHBhdGggc3R5bGU9ImZpbGw6I0ZGRkZGRjsiIGQ9Ik0zMS4yLDQxLjVjLTIuOCwwLTUuMy0yLTUuOS00LjhoLTcuMWMtMC42LDIuNy0zLDQuOC01LjksNC44Yy0zLjMsMC02LTIuNy02LTYmIzEwOyYjOTsmIzk7JiM5O2MwLTIuMSwxLjItNC4xLDMtNS4ybC0yLjItNi43Yy0wLjIsMC0wLjQsMC0wLjYsMGMtMy4zLDAtNi0yLjctNi02YzAtMy4zLDIuNy02LDYtNmMxLjUsMCwyLjksMC41LDQsMS42TDE2LjMsOSYjMTA7JiM5OyYjOTsmIzk7Yy0wLjMtMC44LTAuNS0xLjYtMC41LTIuNWMwLTMuMywyLjctNiw2LTZzNiwyLjcsNiw2YzAsMC44LTAuMiwxLjctMC41LDIuNWw1LjcsNC4yYzEuMS0xLDIuNS0xLjYsNC0xLjZjMy4zLDAsNiwyLjcsNiw2JiMxMDsmIzk7JiM5OyYjOTtzLTIuNyw2LTYsNmMtMC4yLDAtMC40LDAtMC42LDBsLTIuMiw2LjdjMS44LDEuMSwzLDMuMSwzLDUuMkMzNy4yLDM4LjgsMzQuNSw0MS41LDMxLjIsNDEuNXoiLz4mI3hhOwkJPHBhdGggc3R5bGU9ImZpbGw6I0ZGRkZGRjsiIGQ9Ik0yMS43LDFjMywwLDUuNSwyLjUsNS41LDUuNWMwLDAuOS0wLjIsMS44LTAuNywyLjZsNi40LDQuN2MxLTEuMSwyLjQtMS43LDQtMS43JiMxMDsmIzk7JiM5OyYjOTtjMywwLDUuNSwyLjUsNS41LDUuNWMwLDMtMi41LDUuNS01LjUsNS41Yy0wLjMsMC0wLjcsMC0xLTAuMWwtMi41LDcuNWMxLjgsMC45LDMuMSwyLjgsMy4xLDVjMCwzLTIuNSw1LjUtNS41LDUuNSYjMTA7JiM5OyYjOTsmIzk7Yy0yLjgsMC01LjEtMi4xLTUuNS00LjhoLTcuOWMtMC40LDIuNy0yLjcsNC44LTUuNSw0LjhjLTMsMC01LjUtMi41LTUuNS01LjVjMC0yLjIsMS4zLTQuMSwzLjEtNUw3LjUsMjNjLTAuMywwLjEtMC43LDAuMS0xLDAuMSYjMTA7JiM5OyYjOTsmIzk7Yy0zLDAtNS41LTIuNS01LjUtNS41czIuNS01LjUsNS41LTUuNWMxLjYsMCwzLDAuNyw0LDEuN2w2LjQtNC43Yy0wLjQtMC44LTAuNy0xLjctMC43LTIuNkMxNi4yLDMuNSwxOC43LDEsMjEuNywxIE0yMS43LDAmIzEwOyYjOTsmIzk7JiM5O2MtMy42LDAtNi41LDIuOS02LjUsNi41YzAsMC44LDAuMSwxLjYsMC40LDIuM2wtNS4xLDMuN2MtMS4xLTAuOS0yLjYtMS40LTQtMS40QzIuOSwxMS4xLDAsMTQsMCwxNy42czIuOSw2LjUsNi41LDYuNSYjMTA7JiM5OyYjOTsmIzk7YzAuMSwwLDAuMiwwLDAuMywwbDEuOSw2Yy0xLjgsMS4yLTIuOSwzLjItMi45LDUuNGMwLDMuNiwyLjksNi41LDYuNSw2LjVjMi45LDAsNS41LTIsNi4zLTQuOGg2LjNjMC44LDIuOCwzLjMsNC44LDYuMyw0LjgmIzEwOyYjOTsmIzk7JiM5O2MzLjYsMCw2LjUtMi45LDYuNS02LjVjMC0yLjItMS4xLTQuMi0yLjktNS40bDEuOS02YzAuMSwwLDAuMiwwLDAuMywwYzMuNiwwLDYuNS0yLjksNi41LTYuNWMwLTMuNi0yLjktNi41LTYuNS02LjUmIzEwOyYjOTsmIzk7JiM5O2MtMS41LDAtMi45LDAuNS00LjEsMS40bC01LjEtMy43YzAuMy0wLjcsMC40LTEuNSwwLjQtMi4zQzI4LjMsMi45LDI1LjMsMCwyMS43LDBMMjEuNywweiIvPiYjeGE7CTwvZz4mI3hhOwk8Zz4mI3hhOwkJPHBhdGggc3R5bGU9ImZpbGw6I0JCNTAxQzsiIGQ9Ik0zNywxMi4xYy0xLjYsMC0zLDAuNy00LDEuN2wtNi40LTQuN2MwLjQtMC44LDAuNy0xLjcsMC43LTIuNmMwLTMtMi41LTUuNS01LjUtNS41JiMxMDsmIzk7JiM5OyYjOTtzLTUuNSwyLjUtNS41LDUuNWMwLDAuOSwwLjIsMS44LDAuNywyLjZsLTYuNCw0LjdjLTEtMS0yLjQtMS43LTQtMS43Yy0zLDAtNS41LDIuNS01LjUsNS41czIuNSw1LjUsNS41LDUuNWMwLjMsMCwwLjcsMCwxLTAuMSYjMTA7JiM5OyYjOTsmIzk7bDIuNCw3LjVjLTEuOCwwLjktMy4xLDIuOC0zLjEsNWMwLDMsMi41LDUuNSw1LjUsNS41YzIuOCwwLDUuMS0yLjEsNS41LTQuOGg3LjljMC40LDIuNywyLjcsNC44LDUuNSw0LjhjMywwLDUuNS0yLjUsNS41LTUuNSYjMTA7JiM5OyYjOTsmIzk7YzAtMi4yLTEuMy00LjEtMy4xLTVMMzYsMjNjMC4zLDAuMSwwLjcsMC4xLDEsMC4xYzMsMCw1LjUtMi41LDUuNS01LjVTNDAsMTIuMSwzNywxMi4xeiBNMzEuMiwzOS41Yy0yLjIsMC00LTEuOC00LTQmIzEwOyYjOTsmIzk7JiM5O2MwLTIuMiwxLjgtNCw0LTRzNCwxLjgsNCw0QzM1LjIsMzcuNywzMy40LDM5LjUsMzEuMiwzOS41eiBNMTcuOCwzNC44Yy0wLjItMS4zLTAuOC0yLjQtMS43LTMuM2wzLTQuMmMwLjgsMC40LDEuNywwLjcsMi42LDAuNyYjMTA7JiM5OyYjOTsmIzk7YzAuOSwwLDEuOC0wLjIsMi42LTAuN2wzLDQuMmMtMC45LDAuOC0xLjUsMi0xLjcsMy4zSDE3Ljh6IE04LjMsMzUuNWMwLTIuMiwxLjgtNCw0LTRzNCwxLjgsNCw0YzAsMi4yLTEuOCw0LTQsNCYjMTA7JiM5OyYjOTsmIzk7UzguMywzNy43LDguMywzNS41eiBNNi41LDEzLjVjMi4yLDAsNCwxLjgsNCw0cy0xLjgsNC00LDRzLTQtMS44LTQtNFM0LjMsMTMuNSw2LjUsMTMuNXogTTE3LjcsNi41YzAtMi4yLDEuOC00LDQtNHM0LDEuOCw0LDQmIzEwOyYjOTsmIzk7JiM5O3MtMS44LDQtNCw0UzE3LjcsOC43LDE3LjcsNi41eiBNMzEuNiwxOC41bC00LjksMS42Yy0wLjgtMS42LTIuNC0yLjgtNC4yLTMuMVYxMmMxLjMtMC4yLDIuNC0wLjgsMy4yLTEuN2w2LjQsNC43JiMxMDsmIzk7JiM5OyYjOTtjLTAuNCwwLjgtMC43LDEuNy0wLjcsMi42QzMxLjUsMTcuOSwzMS41LDE4LjIsMzEuNiwxOC41eiBNMjUuOCwyMi41YzAsMi4yLTEuOCw0LTQsNHMtNC0xLjgtNC00czEuOC00LDQtNFMyNS44LDIwLjIsMjUuOCwyMi41eiYjMTA7JiM5OyYjOTsmIzk7IE0yMSwxMlYxN2MtMS45LDAuMy0zLjUsMS40LTQuMiwzLjFsLTQuOS0xLjZjMC4xLTAuMywwLjEtMC42LDAuMS0xYzAtMC45LTAuMi0xLjgtMC43LTIuNmw2LjQtNC43QzE4LjYsMTEuMiwxOS43LDExLjgsMjEsMTJ6JiMxMDsmIzk7JiM5OyYjOTsgTTExLjUsMTkuOWw0LjksMS42Yy0wLjEsMC4zLTAuMSwwLjYtMC4xLDFjMCwxLjYsMC43LDMsMS43LDRsLTMsNC4yYy0wLjgtMC40LTEuNy0wLjctMi42LTAuN2MtMC4zLDAtMC43LDAtMSwwLjFsLTIuNC03LjUmIzEwOyYjOTsmIzk7JiM5O0MxMCwyMiwxMC45LDIxLjEsMTEuNSwxOS45eiBNMzEuMiwzMGMtMC45LDAtMS44LDAuMi0yLjYsMC43bC0zLTQuMmMxLjEtMSwxLjctMi40LDEuNy00YzAtMC4zLDAtMC43LTAuMS0xbDQuOS0xLjYmIzEwOyYjOTsmIzk7JiM5O2MwLjUsMS4xLDEuNSwyLDIuNiwyLjZsLTIuNSw3LjVDMzEuOCwzMCwzMS41LDMwLDMxLjIsMzB6IE0zMywxNy42YzAtMi4yLDEuOC00LDQtNHM0LDEuOCw0LDRzLTEuOCw0LTQsNFMzMywxOS44LDMzLDE3LjZ6Ii8+JiN4YTsJPC9nPiYjeGE7PC9nPiYjeGE7PC9zdmc+;dashed=1;dashPattern=1 1;strokeColor=#bb511c;strokeWidth=3;" parent="1" vertex="1">
          <mxGeometry x="1980.7668711656443" y="278.7353191489362" width="32.00846625766871" height="30.5521472392638" as="geometry" />
        </mxCell>
        <mxCell id="dV5V6p4PPA7qp1u5CN09-167" value="" style="shape=image;verticalLabelPosition=bottom;verticalAlign=top;imageAspect=0;aspect=fixed;image=data:image/svg+xml,PHN2ZyB4bWxucz0iaHR0cDovL3d3dy53My5vcmcvMjAwMC9zdmciIHhtbG5zOnhsaW5rPSJodHRwOi8vd3d3LnczLm9yZy8xOTk5L3hsaW5rIiB2ZXJzaW9uPSIxLjEiIGlkPSJMYXllcl8xIiB4PSIwcHgiIHk9IjBweCIgdmlld0JveD0iMCAwIDMyLjM5OTk5NzcxMTE4MTY0IDQyLjE5OTk5Njk0ODI0MjE5IiBzdHlsZT0iZW5hYmxlLWJhY2tncm91bmQ6bmV3IDAgMCAzMi4zIDQyLjI7IiB4bWw6c3BhY2U9InByZXNlcnZlIiB3aWR0aD0iMzIuMzk5OTk3NzExMTgxNjQiIGhlaWdodD0iNDIuMTk5OTk2OTQ4MjQyMTkiPiYjeGE7PGc+JiN4YTsJPGc+JiN4YTsJCTxwYXRoIHN0eWxlPSJmaWxsOiNGRkZGRkY7IiBkPSJNMTUuOCw0MS41QzgsMzguNiw0LjMsMzMuNiwyLjUsMjkuOGMtMi00LjMtMi03LjktMi04LjFWNy4zbDE1LjctNi43bDE1LjYsNi43djE0LjUmIzEwOyYjOTsmIzk7JiM5O2MwLDAuNi0wLjIsMTQuMi0xNS4xLDE5LjdsLTAuNCwwLjJMMTUuOCw0MS41eiIvPiYjeGE7CQk8cGF0aCBzdHlsZT0iZmlsbDojRkZGRkZGOyIgZD0iTTE2LjIsMS4xbDE1LjEsNi41djE0LjJjMCwwLjYtMC4yLDEzLjgtMTQuOCwxOS4ybC0wLjMsMC4xTDE2LDQxQzguMywzOC4yLDQuNywzMy4zLDMsMjkuNiYjMTA7JiM5OyYjOTsmIzk7Yy0xLjktNC4xLTItNy43LTItNy44VjcuNkwxNi4yLDEuMSBNMTYuMiwwbC0wLjQsMC4yTDAuNiw2LjdMMCw2Ljl2MC43djE0LjJjMCwwLjIsMCwzLjksMi4xLDguM2MxLjgsMy44LDUuNiw5LDEzLjYsMTEuOSYjMTA7JiM5OyYjOTsmIzk7bDAuMywwLjFsMC4zLDAuMWwwLjMtMC4xbDAuMy0wLjFjMTUuMy01LjYsMTUuNS0xOS42LDE1LjUtMjAuMlY3LjZWNi45bC0wLjYtMC4zTDE2LjYsMC4yTDE2LjIsMEwxNi4yLDB6Ii8+JiN4YTsJPC9nPiYjeGE7CTxnPiYjeGE7CQk8cGF0aCBzdHlsZT0iZmlsbDpub25lOyIgZD0iTTIuNSw4LjZ2MTMuMmMwLDAuMSwwLDMuNCwxLjgsNy4yYzIuMyw0LjksNi4zLDguNCwxMS45LDEwLjVjMTMuNC01LjEsMTMuNi0xNy4yLDEzLjYtMTcuN1Y4LjYmIzEwOyYjOTsmIzk7JiM5O0wxNi4yLDIuN0wyLjUsOC42eiBNMTYuMSwyOC4zSDd2LTEuNWg5LjFWMjguM3ogTTE2LjEsMjEuNUg3VjIwaDkuMVYyMS41eiBNMTYuMSwxNC4ySDd2LTEuNWg5LjFWMTQuMnogTTIwLjIsMTIuN2wxLjIsMS4ybDMtMyYjMTA7JiM5OyYjOTsmIzk7bDEsMWwtNCw0bC0yLjItMi4yTDIwLjIsMTIuN3ogTTI0LjgsMjIuMmwtMSwxbC0xLjUtMS41bC0xLjUsMS41bC0xLTFsMS41LTEuNWwtMS41LTEuNWwxLTFsMS41LDEuNWwxLjUtMS41bDEsMWwtMS41LDEuNSYjMTA7JiM5OyYjOTsmIzk7TDI0LjgsMjIuMnogTTIwLjIsMjYuOGwxLjIsMS4ybDMtM2wxLDFsLTQsNGwtMi4yLTIuMkwyMC4yLDI2Ljh6Ii8+JiN4YTsJCTxwYXRoIHN0eWxlPSJmaWxsOiNCQjUwMUM7IiBkPSJNMTYuMiwxLjFMMSw3LjZ2MTQuMmMwLDAuMSwwLDMuNywyLDcuOGMxLjcsMy43LDUuNCw4LjYsMTMsMTEuNGwwLjMsMC4xbDAuMy0wLjEmIzEwOyYjOTsmIzk7JiM5O2MxNC42LTUuNCwxNC44LTE4LjcsMTQuOC0xOS4yVjcuNkwxNi4yLDEuMXogTTI5LjgsMjEuOGMwLDAuNS0wLjIsMTIuNi0xMy42LDE3LjdDMTAuNiwzNy40LDYuNiwzMy45LDQuMywyOSYjMTA7JiM5OyYjOTsmIzk7Yy0xLjgtMy45LTEuOC03LjEtMS44LTcuMlY4LjZsMTMuNy01LjlsMTMuNiw1LjlWMjEuOHoiLz4mI3hhOwkJPHJlY3QgeD0iNyIgeT0iMTIuNyIgc3R5bGU9ImZpbGw6I0JCNTAxQzsiIHdpZHRoPSI5LjEiIGhlaWdodD0iMS41Ii8+JiN4YTsJCTxwb2x5Z29uIHN0eWxlPSJmaWxsOiNCQjUwMUM7IiBwb2ludHM9IjI1LjQsMTIgMjQuMywxMSAyMS40LDEzLjkgMjAuMiwxMi43IDE5LjEsMTMuOCAyMS40LDE2ICYjOTsmIzk7Ii8+JiN4YTsJCTxyZWN0IHg9IjciIHk9IjIwIiBzdHlsZT0iZmlsbDojQkI1MDFDOyIgd2lkdGg9IjkuMSIgaGVpZ2h0PSIxLjUiLz4mI3hhOwkJPHBvbHlnb24gc3R5bGU9ImZpbGw6I0JCNTAxQzsiIHBvaW50cz0iMjMuOCwxOC4xIDIyLjMsMTkuNyAyMC43LDE4LjEgMTkuNywxOS4yIDIxLjIsMjAuNyAxOS43LDIyLjIgMjAuNywyMy4zIDIyLjMsMjEuOCAmIzEwOyYjOTsmIzk7JiM5OzIzLjgsMjMuMyAyNC44LDIyLjIgMjMuMywyMC43IDI0LjgsMTkuMiAmIzk7JiM5OyIvPiYjeGE7CQk8cmVjdCB4PSI3IiB5PSIyNi44IiBzdHlsZT0iZmlsbDojQkI1MDFDOyIgd2lkdGg9IjkuMSIgaGVpZ2h0PSIxLjUiLz4mI3hhOwkJPHBvbHlnb24gc3R5bGU9ImZpbGw6I0JCNTAxQzsiIHBvaW50cz0iMjUuNCwyNi4xIDI0LjMsMjUuMSAyMS40LDI4IDIwLjIsMjYuOCAxOS4xLDI3LjkgMjEuNCwzMC4xICYjOTsmIzk7Ii8+JiN4YTsJPC9nPiYjeGE7PC9nPiYjeGE7PC9zdmc+;dashed=1;dashPattern=1 1;strokeColor=#bb511c;strokeWidth=3;" parent="1" vertex="1">
          <mxGeometry x="1882.4907975460123" y="361.13957446808513" width="23.280736196319015" height="30.5521472392638" as="geometry" />
        </mxCell>
        <mxCell id="dV5V6p4PPA7qp1u5CN09-168" value="" style="shape=image;verticalLabelPosition=bottom;verticalAlign=top;imageAspect=0;aspect=fixed;image=data:image/svg+xml,PHN2ZyB4bWxucz0iaHR0cDovL3d3dy53My5vcmcvMjAwMC9zdmciIHhtbG5zOnhsaW5rPSJodHRwOi8vd3d3LnczLm9yZy8xOTk5L3hsaW5rIiB2ZXJzaW9uPSIxLjEiIGlkPSJMYXllcl8xIiB4PSIwcHgiIHk9IjBweCIgdmlld0JveD0iMCAwIDQyIDQyIiBzdHlsZT0iZW5hYmxlLWJhY2tncm91bmQ6bmV3IDAgMCA0MiA0MjsiIHhtbDpzcGFjZT0icHJlc2VydmUiIHdpZHRoPSI0MiIgaGVpZ2h0PSI0MiI+JiN4YTs8Zz4mI3hhOwk8Zz4mI3hhOwkJPHJlY3QgeD0iMC41IiB5PSIwLjUiIHN0eWxlPSJmaWxsOiNGRkZGRkY7IiB3aWR0aD0iNDEiIGhlaWdodD0iNDEiLz4mI3hhOwkJPHBhdGggc3R5bGU9ImZpbGw6I0ZGRkZGRjsiIGQ9Ik00MSwxdjQwSDFWMUg0MSBNNDIsMGgtMUgxSDB2MXY0MHYxaDFoNDBoMXYtMVYxVjBMNDIsMHoiLz4mI3hhOwk8L2c+JiN4YTsJPGc+JiN4YTsJCTxwYXRoIHN0eWxlPSJmaWxsOiNCQjUwMUM7IiBkPSJNMSwxdjQwaDQwVjFIMXogTTM5LjUsMTMuOEgxMy42VjIuNWgyNS45VjEzLjh6IE0yLjUsMjguMmg5LjZ2MTEuNEgyLjVWMjguMnogTTEyLjEsMi41djExLjRIMi41JiMxMDsmIzk7JiM5OyYjOTtWMi41SDEyLjF6IE0xMi4xLDE1LjN2MTEuNEgyLjVWMTUuM0gxMi4xeiBNMTMuNiwzOS41VjI4LjJoMjUuOXYxMS40SDEzLjZ6IE0xMy42LDI2LjdWMTUuM2gyNS45djExLjRIMTMuNnoiLz4mI3hhOwkJPHBvbHlnb24gc3R5bGU9ImZpbGw6I0JCNTAxQzsiIHBvaW50cz0iMTUsMTIuMyAxNi43LDEyLjMgMTcuNiwxMC42IDE4LjUsMTIuMyAyMC4xLDEyLjMgMTguNiw5LjYgMjAsNy4xIDE4LjQsNy4xIDE3LjYsOC43ICYjMTA7JiM5OyYjOTsmIzk7MTYuNyw3LjEgMTUuMSw3LjEgMTYuNiw5LjYgJiM5OyYjOTsiLz4mI3hhOwkJPHJlY3QgeD0iMjAuOSIgeT0iMTEuMSIgc3R5bGU9ImZpbGw6I0JCNTAxQzsiIHdpZHRoPSIxLjQiIGhlaWdodD0iMS4yIi8+JiN4YTsJCTxwb2x5Z29uIHN0eWxlPSJmaWxsOiNCQjUwMUM7IiBwb2ludHM9IjI1LDEyLjMgMjUuOSwxMC42IDI2LjgsMTIuMyAyOC40LDEyLjMgMjYuOCw5LjYgMjguMyw3LjEgMjYuOCw3LjEgMjUuOSw4LjcgMjUsNy4xICYjMTA7JiM5OyYjOTsmIzk7MjMuNCw3LjEgMjQuOSw5LjYgMjMuNCwxMi4zICYjOTsmIzk7Ii8+JiN4YTsJCTxyZWN0IHg9IjI4LjkiIHk9IjExLjEiIHN0eWxlPSJmaWxsOiNCQjUwMUM7IiB3aWR0aD0iMS40IiBoZWlnaHQ9IjEuMiIvPiYjeGE7CQk8cG9seWdvbiBzdHlsZT0iZmlsbDojQkI1MDFDOyIgcG9pbnRzPSIzMi43LDEyLjMgMzMuNiwxMC42IDM0LjYsMTIuMyAzNi4xLDEyLjMgMzQuNiw5LjYgMzYsNy4xIDM0LjUsNy4xIDMzLjYsOC43IDMyLjcsNy4xICYjMTA7JiM5OyYjOTsmIzk7MzEuMiw3LjEgMzIuNiw5LjYgMzEuMSwxMi4zICYjOTsmIzk7Ii8+JiN4YTsJCTxyZWN0IHg9IjM2LjYiIHk9IjExLjEiIHN0eWxlPSJmaWxsOiNCQjUwMUM7IiB3aWR0aD0iMS40IiBoZWlnaHQ9IjEuMiIvPiYjeGE7CQk8cG9seWdvbiBzdHlsZT0iZmlsbDojQkI1MDFDOyIgcG9pbnRzPSIyMCwyMC4xIDE4LjQsMjAuMSAxNy42LDIxLjcgMTYuNywyMC4xIDE1LjEsMjAuMSAxNi42LDIyLjYgMTUsMjUuMyAxNi43LDI1LjMgMTcuNiwyMy42ICYjMTA7JiM5OyYjOTsmIzk7MTguNSwyNS4zIDIwLjEsMjUuMyAxOC42LDIyLjYgJiM5OyYjOTsiLz4mI3hhOwkJPHJlY3QgeD0iMjAuOSIgeT0iMjQiIHN0eWxlPSJmaWxsOiNCQjUwMUM7IiB3aWR0aD0iMS40IiBoZWlnaHQ9IjEuMiIvPiYjeGE7CQk8cG9seWdvbiBzdHlsZT0iZmlsbDojQkI1MDFDOyIgcG9pbnRzPSIyOC4zLDIwLjEgMjYuOCwyMC4xIDI1LjksMjEuNyAyNSwyMC4xIDIzLjQsMjAuMSAyNC45LDIyLjYgMjMuNCwyNS4zIDI1LDI1LjMgMjUuOSwyMy42ICYjMTA7JiM5OyYjOTsmIzk7MjYuOCwyNS4zIDI4LjQsMjUuMyAyNi44LDIyLjYgJiM5OyYjOTsiLz4mI3hhOwkJPHJlY3QgeD0iMjguOSIgeT0iMjQiIHN0eWxlPSJmaWxsOiNCQjUwMUM7IiB3aWR0aD0iMS40IiBoZWlnaHQ9IjEuMiIvPiYjeGE7CQk8cG9seWdvbiBzdHlsZT0iZmlsbDojQkI1MDFDOyIgcG9pbnRzPSIzNiwyMC4xIDM0LjUsMjAuMSAzMy42LDIxLjcgMzIuNywyMC4xIDMxLjIsMjAuMSAzMi42LDIyLjYgMzEuMSwyNS4zIDMyLjcsMjUuMyAmIzEwOyYjOTsmIzk7JiM5OzMzLjYsMjMuNiAzNC42LDI1LjMgMzYuMSwyNS4zIDM0LjYsMjIuNiAmIzk7JiM5OyIvPiYjeGE7CQk8cmVjdCB4PSIzNi42IiB5PSIyNCIgc3R5bGU9ImZpbGw6I0JCNTAxQzsiIHdpZHRoPSIxLjQiIGhlaWdodD0iMS4yIi8+JiN4YTsJCTxwb2x5Z29uIHN0eWxlPSJmaWxsOiNCQjUwMUM7IiBwb2ludHM9IjIwLDMyLjkgMTguNCwzMi45IDE3LjYsMzQuNCAxNi43LDMyLjkgMTUuMSwzMi45IDE2LjYsMzUuMyAxNSwzOCAxNi43LDM4IDE3LjYsMzYuMyAmIzEwOyYjOTsmIzk7JiM5OzE4LjUsMzggMjAuMSwzOCAxOC42LDM1LjQgJiM5OyYjOTsiLz4mI3hhOwkJPHJlY3QgeD0iMjAuOSIgeT0iMzYuOCIgc3R5bGU9ImZpbGw6I0JCNTAxQzsiIHdpZHRoPSIxLjQiIGhlaWdodD0iMS4yIi8+JiN4YTsJCTxwb2x5Z29uIHN0eWxlPSJmaWxsOiNCQjUwMUM7IiBwb2ludHM9IjI4LjMsMzIuOSAyNi44LDMyLjkgMjUuOSwzNC40IDI1LDMyLjkgMjMuNCwzMi45IDI0LjksMzUuMyAyMy40LDM4IDI1LDM4IDI1LjksMzYuMyAmIzEwOyYjOTsmIzk7JiM5OzI2LjgsMzggMjguNCwzOCAyNi44LDM1LjQgJiM5OyYjOTsiLz4mI3hhOwkJPHJlY3QgeD0iMjguOSIgeT0iMzYuOCIgc3R5bGU9ImZpbGw6I0JCNTAxQzsiIHdpZHRoPSIxLjQiIGhlaWdodD0iMS4yIi8+JiN4YTsJCTxwb2x5Z29uIHN0eWxlPSJmaWxsOiNCQjUwMUM7IiBwb2ludHM9IjM2LDMyLjkgMzQuNSwzMi45IDMzLjYsMzQuNCAzMi43LDMyLjkgMzEuMiwzMi45IDMyLjYsMzUuMyAzMS4xLDM4IDMyLjcsMzggMzMuNiwzNi4zICYjMTA7JiM5OyYjOTsmIzk7MzQuNiwzOCAzNi4xLDM4IDM0LjYsMzUuNCAmIzk7JiM5OyIvPiYjeGE7CQk8cmVjdCB4PSIzNi42IiB5PSIzNi44IiBzdHlsZT0iZmlsbDojQkI1MDFDOyIgd2lkdGg9IjEuNCIgaGVpZ2h0PSIxLjIiLz4mI3hhOwk8L2c+JiN4YTs8L2c+JiN4YTs8L3N2Zz4=;fontColor=#312D2A;strokeColor=#AE562C;fillColor=#FCFBFA;" parent="1" vertex="1">
          <mxGeometry x="1923.2269938650306" y="361.13957446808513" width="30.5521472392638" height="30.5521472392638" as="geometry" />
        </mxCell>
        <mxCell id="dV5V6p4PPA7qp1u5CN09-170" value="VM B" style="shape=image;verticalLabelPosition=bottom;verticalAlign=top;imageAspect=0;aspect=fixed;image=data:image/svg+xml,PHN2ZyB4bWxucz0iaHR0cDovL3d3dy53My5vcmcvMjAwMC9zdmciIHhtbG5zOnhsaW5rPSJodHRwOi8vd3d3LnczLm9yZy8xOTk5L3hsaW5rIiB2ZXJzaW9uPSIxLjEiIGlkPSJMYXllcl8xIiB4PSIwcHgiIHk9IjBweCIgdmlld0JveD0iMCAwIDQyIDQyIiBzdHlsZT0iZW5hYmxlLWJhY2tncm91bmQ6bmV3IDAgMCA0MiA0MjsiIHhtbDpzcGFjZT0icHJlc2VydmUiIHdpZHRoPSI0MiIgaGVpZ2h0PSI0MiI+JiN4YTs8c3R5bGUgdHlwZT0idGV4dC9jc3MiPiYjeGE7CS5zdDB7ZmlsbDojRkZGRkZGO30mI3hhOwkuc3Qxe2ZpbGw6IzJDNTk2Nzt9JiN4YTs8L3N0eWxlPiYjeGE7PGc+JiN4YTsJPGc+JiN4YTsJCTxwYXRoIGNsYXNzPSJzdDAiIGQ9Ik0yLjY3LDQxLjVjLTEuMTksMC0yLjE3LTAuOTctMi4xNy0yLjE3VjIuNjdjMC0xLjE5LDAuOTctMi4xNywyLjE3LTIuMTdoMzYuNjdjMS4xOSwwLDIuMTcsMC45NywyLjE3LDIuMTcmIzEwOyYjOTsmIzk7JiM5O3YzNi42N2MwLDEuMTktMC45NywyLjE3LTIuMTcsMi4xN0gyLjY3eiIvPiYjeGE7CQk8cGF0aCBjbGFzcz0ic3QwIiBkPSJNMzkuMzMsMUM0MC4yNSwxLDQxLDEuNzUsNDEsMi42N3YzNi42N2MwLDAuOTItMC43NSwxLjY3LTEuNjcsMS42N0gyLjY3QzEuNzUsNDEsMSw0MC4yNSwxLDM5LjMzVjIuNjcmIzEwOyYjOTsmIzk7JiM5O0MxLDEuNzUsMS43NSwxLDIuNjcsMUgzOS4zMyBNMzkuMzMsMEgyLjY3QzEuMiwwLDAsMS4yLDAsMi42N3YzNi42N0MwLDQwLjgsMS4yLDQyLDIuNjcsNDJoMzYuNjdDNDAuOCw0Miw0Miw0MC44LDQyLDM5LjMzVjIuNjcmIzEwOyYjOTsmIzk7JiM5O0M0MiwxLjIsNDAuOCwwLDM5LjMzLDBMMzkuMzMsMHoiLz4mI3hhOwk8L2c+JiN4YTsJPGc+JiN4YTsJCTxwYXRoIGNsYXNzPSJzdDEiIGQ9Ik0zOS4zMywxSDIuNjdDMS43NSwxLDEsMS43NSwxLDIuNjd2MzYuNjdDMSw0MC4yNSwxLjc1LDQxLDIuNjcsNDFoMzYuNjdjMC45MiwwLDEuNjctMC43NSwxLjY3LTEuNjdWMi42NyYjMTA7JiM5OyYjOTsmIzk7QzQxLDEuNzUsNDAuMjUsMSwzOS4zMywxeiBNMzkuNTIsMzkuMzNjMCwwLjEtMC4wOCwwLjE5LTAuMTksMC4xOUgyLjY3Yy0wLjEsMC0wLjE5LTAuMDgtMC4xOS0wLjE5VjIuNjcmIzEwOyYjOTsmIzk7JiM5O2MwLTAuMSwwLjA4LTAuMTksMC4xOS0wLjE5aDM2LjY3YzAuMSwwLDAuMTksMC4wOCwwLjE5LDAuMTlWMzkuMzN6Ii8+JiN4YTsJCTxwYXRoIGNsYXNzPSJzdDEiIGQ9Ik02LjU2LDM1LjQ0aDI5LjA3di04Ljg5SDYuNTZWMzUuNDR6IE04LjA0LDI4LjA0aDI2LjExdjUuOTNIOC4wNFYyOC4wNHoiLz4mI3hhOwkJPGNpcmNsZSBjbGFzcz0ic3QxIiBjeD0iMzAuODEiIGN5PSIzMSIgcj0iMS4xMSIvPiYjeGE7CQk8cGF0aCBjbGFzcz0ic3QxIiBkPSJNMTUuNDQsNi41Nkg2LjU2djguODloOC44OVY2LjU2eiBNMTMuOTYsMTMuOTZIOC4wNFY4LjA0aDUuOTNWMTMuOTZ6Ii8+JiN4YTsJCTxwYXRoIGNsYXNzPSJzdDEiIGQ9Ik0yNS40NCw2LjU2aC04Ljg5djguODloOC44OVY2LjU2eiBNMjMuOTYsMTMuOTZoLTUuOTNWOC4wNGg1LjkzVjEzLjk2eiIvPiYjeGE7CQk8cGF0aCBjbGFzcz0ic3QxIiBkPSJNMTUuNDQsMTYuNTZINi41NnY4Ljg5aDguODlWMTYuNTZ6IE0xMy45NiwyMy45Nkg4LjA0di01LjkzaDUuOTNWMjMuOTZ6Ii8+JiN4YTsJCTxwYXRoIGNsYXNzPSJzdDEiIGQ9Ik0yNS40NCwxNi41NmgtOC44OXY4Ljg5aDguODlWMTYuNTZ6IE0yMy45NiwyMy45NmgtNS45M3YtNS45M2g1LjkzVjIzLjk2eiIvPiYjeGE7CQk8cGF0aCBjbGFzcz0ic3QxIiBkPSJNMzUuNDQsNi41NmgtOC44OXY4Ljg5aDguODlWNi41NnogTTMzLjk2LDEzLjk2aC01LjkzVjguMDRoNS45M1YxMy45NnoiLz4mI3hhOwkJPHBhdGggY2xhc3M9InN0MSIgZD0iTTM1LjQ0LDE2LjU2aC04Ljg5djguODloOC44OVYxNi41NnogTTMzLjk2LDIzLjk2aC01Ljkzdi01LjkzaDUuOTNWMjMuOTZ6Ii8+JiN4YTsJPC9nPiYjeGE7PC9nPiYjeGE7PC9zdmc+" parent="1" vertex="1">
          <mxGeometry x="1696.9969325153374" y="451.3978723404256" width="75.36196319018404" height="75.36196319018404" as="geometry" />
        </mxCell>
        <mxCell id="dV5V6p4PPA7qp1u5CN09-171" value="" style="group" parent="1" vertex="1" connectable="0">
          <mxGeometry x="1973" y="485.98" width="69.72" height="65" as="geometry" />
        </mxCell>
        <UserObject label="Internet Gateway" placeholders="1" name="Variable" id="dV5V6p4PPA7qp1u5CN09-172">
          <mxCell style="text;html=1;strokeColor=none;fillColor=#F5F4F2;align=center;verticalAlign=middle;whiteSpace=wrap;overflow=hidden;container=0;" parent="dV5V6p4PPA7qp1u5CN09-171" vertex="1">
            <mxGeometry x="13.86" y="36" width="51" height="34" as="geometry" />
          </mxCell>
        </UserObject>
        <mxCell id="dV5V6p4PPA7qp1u5CN09-173" value="" style="shape=image;aspect=fixed;image=data:image/svg+xml,PHN2ZyB4bWxucz0iaHR0cDovL3d3dy53My5vcmcvMjAwMC9zdmciIHZpZXdCb3g9IjAgMCAzOS4zMSA0Mi44MyI+PGRlZnM+PHN0eWxlPi5jbHMtMXtmaWxsOiNmZmY7fS5jbHMtMntmaWxsOiMyYzU5Njc7fTwvc3R5bGU+PC9kZWZzPjx0aXRsZT5kcmF3aW9Bc3NldCAxPC90aXRsZT48ZyBpZD0iTGF5ZXJfMiIgZGF0YS1uYW1lPSJMYXllciAyIj48ZyBpZD0iTGF5ZXJfMS0yIiBkYXRhLW5hbWU9IkxheWVyIDEiPjxwYXRoIGNsYXNzPSJjbHMtMSIgZD0iTTE1LjU1LDM4LDE3LDM2LjU5Yy0uMy0uMDUtLjYtLjExLS45LS4xOWwtLjM5LS4wOWMtLjI3LS4wNy0uNTMtLjE1LS43OS0uMjRhNSw1LDAsMCwxLS41MS0uMTdsLS42My0uMjUtLjYzLS4yNy0uNDEtLjJjLS4zMS0uMTYtLjU2LS4yOS0uOC0uNDNsLS4yOS0uMThjLS4zMS0uMTktLjU4LS4zNi0uODMtLjU0bC0uNDMtLjMxLS40My0uMzItLjQxLS4zNCwwLDBBMTUuNDgsMTUuNDgsMCwwLDEsOCwzMS41M0g4bC0uMzYtLjQxLS4zMi0uNDNMNywzMC4yN2MtLjE4LS4yNi0uMzUtLjUyLS41Mi0uNzlsLS4yLS4zNGMtLjE0LS4yNC0uMjctLjQ4LS40LS43M3MtLjE3LS4zMy0uMjMtLjQ3LS4xOS0uNDItLjI3LS42My0uMTgtLjQyLS4yNS0uNjNBNCw0LDAsMCwxLDUsMjYuMjNjLS4xMS0uMzItLjE5LS41OC0uMjYtLjg1TDQuNjYsMjVjLS4wNy0uMy0uMTQtLjYxLS4xOS0uOTJsLS4wOC0uNWMwLS4xOC0uMDYtLjM2LS4wOC0uNTVsMC0uNDhILjVWMjAuMjlINC4yOGwwLS40OGMwLS4xOS4wNS0uMzcuMDgtLjU1bC4wOC0uNWMwLS4zMS4xMi0uNjIuMi0uOTNsLjA5LS4zOGMuMDctLjI3LjE1LS41My4yNC0uOHMuMTEtLjMzLjE2LS41LjE3LS40My4yNi0uNjQuMTctLjQxLjI3LS42MmwuMjEtLjQzYy4xNS0uMjkuMjgtLjU0LjQyLS43N2wuMjEtLjM1cS4yNC0uMzkuNTEtLjc4bC4zMS0uNDJjLjEtLjE1LjIxLS4zLjMyLS40NEw4LDExLjI4bDAsMEExNC40NCwxNC40NCwwLDAsMSw5LjU1LDkuNzloMGwuNC0uMzUuNDUtLjMzLjQtLjNjLjI2LS4xOC41My0uMzUuNzktLjUxbC4zNC0uMjEuNzMtLjQuMSwwLC4zOC0uMTlxLjMxLS4xNS42My0uMjdsLjYzLS4yNi40NS0uMTUuODUtLjI1LjM4LS4xTDE3LDYuMjMsMTUuNTUsNC44MWw0LjEtNC4xLDQuMSw0LjFMMjIuMzMsNi4yM2wuOS4xOS4zOS4xYy4yNy4wNy41My4xNS43OS4yNGwuNTEuMTYuNjMuMjYuNjMuMjcuMzkuMTkuODEuNDQuMy4xOGMuMzEuMTkuNTcuMzYuODMuNTRsLjQzLjMxLjQzLjMyLjQxLjM0LDAsMGExNS4yNywxNS4yNywwLDAsMSwxLjUxLDEuNWgwbC4zNi40Mi4zMy40NC4zLjQycS4yNy4zOS41MS43OGwuMjEuMzRjLjE0LjI1LjI3LjQ5LjM5LjczbC4yNC40OHEuMTUuMzEuMjcuNjNjLjA5LjIxLjE4LjQyLjI1LjYzcy4xMS4zMS4xNi40Ny4xOC41Ni4yNS44M2wuMDkuMzljLjA4LjMuMTQuNjEuMi45MmwuMDguNWE0Ljg2LDQuODYsMCwwLDEsLjA3LjU1bDAsLjQ4aDMuNzd2Mi4yNUgzNUwzNSwyM2E1LDUsMCwwLDEtLjA3LjU0bC0uMDguNTFjLS4wNi4zMS0uMTIuNjItLjIuOTJsLS4wOS4zOWMtLjA3LjI3LS4xNS41My0uMjQuNzlhNSw1LDAsMCwxLS4xNy41MWMtLjA3LjIxLS4xNi40Mi0uMjUuNjNzLS4xNy40Mi0uMjcuNjNsLS4yMi40NGMtLjE0LjI4LS4yNy41Mi0uNDEuNzZsLS4yMS4zNGMtLjE2LjI3LS4zMy41My0uNTEuNzlsLS4zLjRhNC44NCw0Ljg0LDAsMCwxLS4zMy40NmwtLjM1LjQzLDAsMEExNS4yNywxNS4yNywwLDAsMSwyOS43NiwzM2gwbC0uNC4zNS0uNDMuMzEtLjQzLjMyYy0uMjYuMTgtLjUyLjM1LS43OS41MWwtLjM0LjIxYy0uMjQuMTQtLjQ4LjI3LS43My4zOWwtLjQ3LjI0LS42My4yNy0uNjMuMjUtLjUxLjE3Yy0uMjYuMDktLjUyLjE3LS43OS4yNGwtLjM5LjA5Yy0uMy4wOC0uNi4xNC0uOS4xOUwyMy43NSwzOGwtNC4xLDQuMVptNS4yMy0uMTlMMjIsMzYuNjVsLS4xNSwwYTUsNSwwLDAsMS0uNTQuMDdsLS40OCwwWm0tMi4yNSwwdi0xbC0uNDgsMGE0Ljg2LDQuODYsMCwwLDEtLjU1LS4wN2wtLjE0LDBaTTIxLjI2LDYuMDdsLjU0LjA4LjE1LDBMMjAuNzgsNVY2Wm0tMy45LjEuMTQsMCwuNTUtLjA4TDE4LjUzLDZWNVoiLz48cGF0aCBjbGFzcz0iY2xzLTEiIGQ9Ik0xOS42NSwxLjQxbDEuNTEsMS41MS4wNS4wNSwxLjg0LDEuODQtLjg4Ljg4LTEtMS0uOTMtLjk0VjYuNTJsLjkzLjA3djBsLjcyLjExLjMsMGMuMywwLC41OS4xMi44OS4xOWwuMzcuMDkuNzcuMjMuNDkuMTYuNjEuMjVMMjYsNy45bC40Ni4yM2MuMjQuMTIuNDcuMjQuNy4zOGwuMzMuMmMuMjYuMTYuNTIuMzIuNzcuNWwuMjMuMThjLjIuMTQuNC4yOC41OS40M2gwYTE1LjI1LDE1LjI1LDAsMCwxLDIuMiwyLjJoMGMuMTUuMTkuMjkuMzkuNDMuNThsLjE4LjI0Yy4xOC4yNS4zNC41MS41Ljc3cy4xMy4yMS4yLjMzLjI2LjQ2LjM4LjcuMTUuMzEuMjMuNDYuMTguNC4yNi42MS4xNy40LjI0LjYxLjExLjMzLjE3LjQ5LjE2LjUxLjIzLjc3bC4wOS4zN2MuMDcuMy4xMy41OS4xOS44OSwwLC4xLDAsLjIsMCwuM3MuMDguNDguMTEuNzJoMHEwLC40Ny4wNi45M2gzLjc3VjIySDM0LjU0cTAsLjQ3LS4wNi45M2gwYzAsLjI0LS4wNy40OC0uMTEuNzJzMCwuMiwwLC4zYy0uMDYuMy0uMTIuNTktLjE5Ljg5bC0uMDkuMzdjLS4wNy4yNi0uMTUuNTEtLjIzLjc3cy0uMTEuMzItLjE3LjQ5LS4xNi40MS0uMjQuNjEtLjE3LjQxLS4yNi42MWwtLjIzLjQ2LS4zOC43LS4yLjMzYy0uMTYuMjYtLjMyLjUxLS41Ljc2bC0uMTguMjVjLS4xNC4xOS0uMjguMzktLjQzLjU4aDBBMTUuMjUsMTUuMjUsMCwwLDEsMjksMzNoMGMtLjE5LjE1LS4zOS4yOS0uNTkuNDNsLS4yMy4xOGMtLjI1LjE4LS41MS4zNC0uNzcuNWwtLjMzLjJjLS4yMy4xMy0uNDYuMjYtLjcuMzhsLS40Ni4yMy0uNjEuMjYtLjYxLjI0LS40OS4xNy0uNzcuMjMtLjM3LjA5LS44OS4xOS0uMywwLS43Mi4xMXYwcS0uNDcsMC0uOTMuMDZWMzlsLjkzLS45MywxLTEsLjg4Ljg4LTEuODQsMS44NC0uNjguNjctLjg4Ljg4LS44OC0uODgtLjY3LS42N0wxNi4yNiwzOGwuODgtLjg4LDEsMUwxOSwzOVYzNi4zcS0uNDcsMC0uOTMtLjA2djBsLS43Mi0uMTEtLjMsMC0uODktLjE5LS4zNy0uMDktLjc3LS4yMy0uNDktLjE3Yy0uMjEtLjA3LS40MS0uMTYtLjYxLS4yNGwtLjYxLS4yNi0uNDYtLjIzYy0uMjQtLjEyLS40Ny0uMjUtLjctLjM4bC0uMzMtLjJjLS4yNi0uMTYtLjUyLS4zMi0uNzctLjVsLS4yMy0uMThjLS4yLS4xNC0uNC0uMjgtLjU5LS40M2gwYTE1LjI1LDE1LjI1LDAsMCwxLTIuMi0yLjJoMGMtLjE1LS4xOS0uMjktLjM5LS40My0uNTlzLS4xMi0uMTUtLjE4LS4yNGMtLjE4LS4yNS0uMzQtLjUtLjUtLjc2LS4wNy0uMTEtLjE0LS4yMi0uMi0uMzNzLS4yNi0uNDctLjM4LS43bC0uMjMtLjQ2Yy0uMDktLjItLjE4LS40MS0uMjYtLjYxcy0uMTctLjQxLS4yNS0uNjEtLjExLS4zMy0uMTYtLjQ5LS4xNi0uNTEtLjIzLS43N2wtLjA5LS4zN2MtLjA3LS4zLS4xMy0uNTktLjE5LS45LDAtLjA5LDAtLjE5LDAtLjI5cy0uMDgtLjQ4LS4xMS0uNzJoMGMwLS4zMSwwLS42Mi0uMDctLjkzSDFWMjAuNzlINC43NmMwLS4zMSwwLS42Mi4wNy0uOTNoMGMwLS4yNC4wNy0uNDguMTEtLjcyczAtLjIsMC0uM2MuMDYtLjMuMTItLjU5LjE5LS44OWwuMDktLjM3Yy4wNy0uMjYuMTUtLjUyLjIzLS43N2wuMTYtLjQ5Yy4wOC0uMjEuMTYtLjQxLjI1LS42MXMuMTctLjQxLjI2LS42MS4xNS0uMzEuMjMtLjQ2LjI0LS40Ny4zOC0uN0EzLjc5LDMuNzksMCwwLDEsNywxMy42Yy4xNi0uMjUuMzItLjUxLjUtLjc2bC4xOC0uMjRjLjE0LS4xOS4yOC0uMzkuNDMtLjU4aDBhMTUuMjUsMTUuMjUsMCwwLDEsMi4yLTIuMmgwbC41OC0uNDMuMjQtLjE4Yy4yNS0uMTguNTEtLjM0Ljc3LS41YTMuNjIsMy42MiwwLDAsMSwuMzMtLjJjLjIzLS4xMy40Ni0uMjYuNy0uMzhsLjQ2LS4yM0wxNCw3LjY0bC42MS0uMjUuNDktLjE2TDE1LjgyLDdsLjM3LS4wOWMuMy0uMDcuNTktLjE0Ljg5LS4xOWwuMywwLC43Mi0uMTF2MEwxOSw2LjUyVjMuNzlsLS45My45NC0xLDEtLjg4LS44OEwxOC4xLDNsMC0uMDUsMS41LTEuNTFtMC0xLjQxTDE5LC43MWwtMS41LDEuNS0uMDYsMEwxNS41NSw0LjFsLS43LjcxLjcuNzEuNDIuNDFoMGwtLjExLDBMMTUuNTYsNmwtLjgyLjI1LS4wNSwwLS40Ny4xNS0uNjYuMjZMMTIuOTIsN2wtLjQyLjIxLS4wNywwYy0uMjYuMTMtLjUxLjI2LS43NS40bC0uMjYuMTYtLjEuMDZjLS4yNy4xNy0uNTQuMzQtLjgxLjUzYTEuMDksMS4wOSwwLDAsMC0uMTcuMTNsLS4wOS4wNi0uMTYuMTJMOS42Myw5bC0uODUuNjksMCwwYy0uMjguMjYtLjU1LjUyLS44MS44bDAsMC0uNzEuODQtLjM0LjQ1TDYuODIsMTJsLS4wNi4wOWExLjA5LDEuMDksMCwwLDAtLjEzLjE3Yy0uMTkuMjctLjM2LjU0LS41My44MWwwLC4wOS0uMTcuMjdjLS4xNC4yNC0uMjcuNDktLjQuNzVzLS4xNy4zMy0uMjUuNDktLjE5LjQzLS4yOC42NC0uMTcuNDQtLjI1LjY2LS4xMS4zMS0uMTYuNDZsMCwuMDZjLS4wOS4yNy0uMTcuNTQtLjI1LjgyLDAsLjEsMCwuMi0uMDcuM2wwLC4xYy0uMDguMzEtLjE1LjYzLS4yLDFsMCwuMjEsMCwuMSwwLC4yMWMwLC4xOS0uMDYuMzctLjA4LjU3djBIMFYyM0gzLjgxdjBjMCwuMTkuMDUuMzguMDguNTdsMCwuMkw0LDI0bDAsLjJjLjA1LjMzLjEyLjY0LjIsMWwwLC4xYzAsLjEsMCwuMi4wNy4zLjA4LjI4LjE2LjU1LjI1LjgybDAsMCwuMTUuNDhjLjA5LjIyLjE3LjQ0LjI2LjY1cy4xOC40NC4yOC42NWwuMjMuNDVjLjE1LjI5LjI4LjU1LjQyLjc5bC4xNi4yNi4wNi4xYy4xNy4yNy4zNC41NC41My44MWwuMTMuMTguMDYuMDguMTIuMTZjLjExLjE2LjIyLjMxLjM0LjQ2bC43Ljg1LDAsMHEuMzkuNDIuODEuODFsMCwwLC44My43LjQ1LjM0LjE3LjEyLjA5LjA3LjE2LjEyYy4yNy4xOS41NS4zNi44Mi41M2wuMDkuMDUuMjYuMTZjLjI1LjE1LjUuMjguNzYuNDFsLjA1LDAsLjQ0LjIyLjY1LjI4LjY1LjI2LjQ3LjE2LjA1LDBjLjI3LjA5LjU0LjE3LjgyLjI0bC4zLjA4LjEsMGgwbC0uNDIuNDItLjcuNzEuNy43MSwxLjg0LDEuODQuNjguNjcuODguODguNy43MS43MS0uNzEuODgtLjg4LjY4LS42NywxLjgzLTEuODQuNzEtLjcxLS43MS0uNzEtLjQyLS40MmgwbC4xLDAsLjMtLjA4Yy4yOC0uMDcuNTUtLjE1LjgyLS4yNGwuNTEtLjE3LjY3LS4yN2MuMjEtLjA4LjQzLS4xOC42NC0uMjhzLjI5LS4xNC40My0uMjFsLjA2LDBjLjI1LS4xMy41MS0uMjYuNzUtLjQxTDI3LjksMzUsMjgsMzVjLjI3LS4xNy41NC0uMzQuODEtLjUzbC4xOC0uMTMuMDgtLjA2LjE2LS4xMi40Ni0uMzQuODQtLjY5LDAsMGMuMjctLjI2LjU0LS41Mi44LS44bDAsMCwuNzItLjg1Yy4xMi0uMTUuMjMtLjMxLjM1LS40N2wuMTEtLjE1LjA2LS4wOC4xMy0uMThjLjE5LS4yNy4zNi0uNTQuNTMtLjgxbDAtLjA5LjE2LS4yNmMuMTUtLjI1LjI4LS41MS40MS0uNzZzLjE3LS4zNC4yNC0uNDkuMi0uNDMuMjgtLjY1LjE4LS40My4yNi0uNjUuMTEtLjMyLjE2LS40OGwwLS4wNXEuMTQtLjM5LjI0LS44MWMwLS4xLDAtLjIuMDgtLjNsMC0uMWMuMDgtLjMyLjE1LS42My4yLS45NWwwLS4yMiwwLS4xLDAtLjJjMC0uMTkuMDYtLjM4LjA4LS41N3YwaDMuODFWMTkuNzlIMzUuNDl2MGMwLS4yLS4wNS0uMzgtLjA4LS41N2wwLS4yLDAtLjEsMC0uMjJjMC0uMzItLjEyLS42My0uMi0xbDAtLjExYzAtLjEsMC0uMTktLjA3LS4yOS0uMDctLjI4LS4xNS0uNTUtLjI0LS44MmwwLS4wNWMtLjA1LS4xNi0uMS0uMzEtLjE2LS40N3MtLjE3LS40NC0uMjYtLjY1LS4xOC0uNDQtLjI4LS42NS0uMTQtLjMtLjIyLS40NWMtLjE1LS4zLS4yOC0uNTUtLjQyLS43OWwtLjE2LS4yNi0uMDYtLjFjLS4xNy0uMjctLjM0LS41NC0uNTMtLjgxbC0uMTMtLjE3TDMyLjQ5LDEybC0uMTItLjE2Yy0uMTEtLjE2LS4yMi0uMzEtLjM0LS40NmwtLjctLjg2LDAsMGMtLjI2LS4yOC0uNTMtLjU1LS44LS44bDAsMEwyOS42OCw5bC0uNDYtLjM0LS4xNi0uMTJMMjksOC41MmwtLjE4LS4xM2MtLjI3LS4xOS0uNTQtLjM2LS44Mi0uNTNsLS4wOC0uMDUtLjI3LS4xN2MtLjI0LS4xNC0uNS0uMjctLjc1LS40bC0uMDYsMEwyNi4zOSw3bC0uNjUtLjI4LS42NS0uMjUtLjQ3LS4xNi0uMDUsMEwyMy43NSw2LDIzLjQ1LDZsLS4xLDBoMGwuNDItLjQxLjcxLS43MS0uNzEtLjcxTDIxLjkyLDIuMjZsLS4wNSwwTDIwLjM2LjcxLDE5LjY1LDBaIi8+PHBhdGggY2xhc3M9ImNscy0yIiBkPSJNMjEuMjEsMzV2MS4yNkExNSwxNSwwLDAsMCwzNC41LDIzSDMzLjI1QTEzLjcxLDEzLjcxLDAsMCwxLDIxLjIxLDM1WiIvPjxwYXRoIGNsYXNzPSJjbHMtMiIgZD0iTTYuMDYsMjNINC44MUExNSwxNSwwLDAsMCwxOC4xLDM2LjI2VjM1QTEzLjcxLDEzLjcxLDAsMCwxLDYuMDYsMjNaIi8+PHBhdGggY2xhc3M9ImNscy0yIiBkPSJNMzMuMjUsMTkuODZIMzQuNUExNSwxNSwwLDAsMCwyMS4yMSw2LjU3VjcuODJBMTMuNzMsMTMuNzMsMCwwLDEsMzMuMjUsMTkuODZaIi8+PHBhdGggY2xhc3M9ImNscy0yIiBkPSJNMTguMSw3LjgyVjYuNTdBMTUsMTUsMCwwLDAsNC44MSwxOS44Nkg2LjA2QTEzLjczLDEzLjczLDAsMCwxLDE4LjEsNy44MloiLz48cG9seWdvbiBjbGFzcz0iY2xzLTIiIHBvaW50cz0iMjAuMjggMy43OSAyMS4yMSA0LjczIDIyLjE3IDUuNjkgMjMuMDUgNC44MSAyMS4yMSAyLjk3IDIxLjE2IDIuOTIgMTkuNjUgMS40MSAxOC4xNSAyLjkyIDE4LjEgMi45NyAxNi4yNiA0LjgxIDE3LjE0IDUuNjkgMTguMSA0LjczIDE5LjAzIDMuNzkgMTkuMDMgMzkuMDMgMTguMSAzOC4xIDE3LjE0IDM3LjE0IDE2LjI2IDM4LjAyIDE4LjEgMzkuODYgMTguNzcgNDAuNTMgMTkuNjUgNDEuNDEgMjAuNTMgNDAuNTMgMjEuMjEgMzkuODYgMjMuMDUgMzguMDIgMjIuMTcgMzcuMTQgMjEuMjEgMzguMSAyMC4yOCAzOS4wMyAyMC4yOCAzLjc5Ii8+PHBvbHlnb24gY2xhc3M9ImNscy0yIiBwb2ludHM9IjIyLjcxIDIwLjc5IDIzLjY0IDE5Ljg2IDI0LjYgMTguOSAyMy43MiAxOC4wMiAyMS44OCAxOS44NiAyMC4zMyAyMS40MSAyMS44OCAyMi45NyAyMy43MiAyNC44MSAyNC42IDIzLjkzIDIzLjY0IDIyLjk3IDIyLjcxIDIyLjA0IDM4LjMxIDIyLjA0IDM4LjMxIDIwLjc5IDIyLjcxIDIwLjc5Ii8+PHBvbHlnb24gY2xhc3M9ImNscy0yIiBwb2ludHM9IjE2LjYgMjIuMDQgMTUuNjcgMjIuOTcgMTQuNzEgMjMuOTMgMTUuNTkgMjQuODEgMTguMSAyMi4yOSAxOC45OCAyMS40MSAxOC4xIDIwLjU0IDE1LjU5IDE4LjAyIDE0LjcxIDE4LjkgMTUuNjcgMTkuODYgMTYuNiAyMC43OSAxIDIwLjc5IDEgMjIuMDQgMTYuNiAyMi4wNCIvPjwvZz48L2c+PC9zdmc+;" parent="dV5V6p4PPA7qp1u5CN09-171" vertex="1">
          <mxGeometry x="9" y="-30" width="60.72" height="66" as="geometry" />
        </mxCell>
        <mxCell id="dV5V6p4PPA7qp1u5CN09-183" style="vsdxID=32;fillColor=none;gradientColor=none;strokeColor=none;spacingTop=-3;spacingBottom=-3;spacingLeft=-3;spacingRight=-3;points=[];labelBackgroundColor=none;rounded=0;html=1;whiteSpace=wrap;" parent="1" vertex="1">
          <mxGeometry x="1376" y="456.98" width="71.5" height="70" as="geometry" />
        </mxCell>
        <mxCell id="dV5V6p4PPA7qp1u5CN09-184" style="vsdxID=33;fillColor=#FFFFFF;gradientColor=none;shape=stencil(jVLbDoIwDP2avZKtDRKfEf/DyJBFBDJA4e9lKYatBMNbL+fs9HQVmHblrdUCZNfb5qk/Ju9LgRcBYOpSW9PPkcBMYFo0Vj9sM9Q55e3NIV30at7uhZF4sXQUkBOlSlJ+Jex9sARW1E6S6KQWggoZcgRWmGBDGpFjMBhjR3aFLwWACM+hrD/aUpKhaMw0/0p6Cj9R5pO59EfCEHHII3PoL22rMPFd73lk/1mZ+vDfz8F6NIWpKro5v8+PbC7RgWL2BQ==);strokeColor=none;spacingTop=-3;spacingBottom=-3;spacingLeft=-3;spacingRight=-3;points=[];labelBackgroundColor=none;rounded=0;html=1;whiteSpace=wrap;" parent="dV5V6p4PPA7qp1u5CN09-183" vertex="1">
          <mxGeometry x="0.8411764705882353" y="0.8235294117647058" width="68.9764705882353" height="67.52941176470588" as="geometry" />
        </mxCell>
        <mxCell id="dV5V6p4PPA7qp1u5CN09-185" style="vsdxID=34;fillColor=#FFFFFF;gradientColor=none;shape=stencil(nVbLctswDPwaXTEEwRfOafIfmcSpPXXtjOO0yd8HqkRKBEd025sME1otdrnkQHdv+8fX3WDN2/Vy/rH7fXi+7gf6Nlh7OO13l8NVnga6H+ju5XzZfb+c30/P0+/Xx3Hl+PTz/Gt8w8fU5w24NHZZ8zlVLFD4U3iY1j+9X6YGnDsYEs4dqFrMh50qIQHTvGgueUA7L6KpEgOEjD2X0ABhDz05cK5GRw+Oa3hesZpL8pHJ1/jswPganxBc7OFzhGBrfGfAaPwEPtT4jsFHhR8guhrfJ4i2i++AFX6IkGLL39b4Mmyr8BNBoho/2fyuDfwYwVKNnxhcK39S8jMBhxpfnKT1Zw8xdd1nwCv8UZIa3uEirC2zDgqeLDhFXz5ylnID3lJjfqHvbY2PAZzCl1lnR2Z8xKJIxo/+hvwBTBq0+qzUJyAlvthKm3+1iBaHdsFXLbkSwWANnsCy2nkejNr5GAHV6GVm2HWevIYV9whEivoyjQK/hBMVDznlOx16x8Ppn0LyVqiaHjMJkMA1M6NoISBqWlyzGivKTgnI94DRQVKKIkFUYZbaLMXF8tk8EJWgZHLgbaCbRk/iEq4Z3LQpqrcRMNbIkivYDRFqaEtgtbS9q8El+wIqcF+yrwzd5cYtI4t5lNyMTYSK5FZJLhmGirxYp1DJGZZuZNjoThWhaJThgpzDSnTmZhsHbhPU51DbOkBWdlrY6wRNoWGffMNeGoM6wEUjQz18OS1UgI+HldK+zKMEKOd7ySJ9WfO3+bl0ZB+G4oRycrt8AC67bbUlqcxC8Zat3N3qcTXQ7AOwauqBisE/6/3Xic4q2m7l5v8vloflDvtyOB6nK/D6f33nldJ0X6b7Lw==);strokeColor=none;spacingTop=-3;spacingBottom=-3;spacingLeft=-3;spacingRight=-3;points=[];labelBackgroundColor=none;rounded=0;html=1;whiteSpace=wrap;" parent="dV5V6p4PPA7qp1u5CN09-183" vertex="1">
          <mxGeometry width="71.5" height="70" as="geometry" />
        </mxCell>
        <mxCell id="dV5V6p4PPA7qp1u5CN09-186" style="vsdxID=35;fillColor=#2d5967;gradientColor=none;shape=stencil(lVbbchoxDP2afdVYlq/PafofmYYUpjRkCGnp31fbXctYBpO+7Rp7D9K5yBM9vG+f3jaTNe+n4+HH5vfu+bSd6Mtk7e51uznuTvw00eNEDy+H4+b78fDx+ry8vz3NO+enn4df8xfOyzlvwKX5lDV/lhXz7+3rsvnbx3HZjcuPzkDI63a83G/OdnklBMR1x7pkYT1ypnWBV+K6Z11KQH4EjA6SbYGRIOYWPNViCjaCty26g0gtOBnwcYRuIKcWnDIE24KbFtll8KlFRsjYIvsMmEbI1JUd0pWyvWvBY4SACtyDC6rprhy8gc5EkaI7o3zmgnKrKM+h1FXbbmop61JOYPIIf1YntfholOCCAVKk5wxGkR5y/VJB92CHrMcLOdXqvaI9ha765Lvq+WDwLT5zZGiEnyPgpLlPinvpRwFnSZGmXvZQ1aYd2k1OFONTbakV9qJtsSl0mmcl2P+1W2ZnuxafXeuV7LIp6hF8zKBKZypU2zlJhkmTDGjJi20LdGQvKcdxmWG6Jzmua1h4IHA65cCmFtyHmkZt9BTky1CnK6m+371+fgTcmxfZlfbcmhkoFKA+UjPE1lQu/Fqwri3MimVrhsXS+FtSjqBMnKx8RVyEXU9jb2LOWSWmEIohbyVYnYZlJYESsusChP3pYovtu5E5z+JxflV/lmmCkBQ4WjBKyrNM9eRKdRCQ9NUN4+ty0KK02Sg1M/EyFsRKUVmJJRSUlTyYoequjA6qFq1ZKYwKGeiVj1lAOrrBD1mPPP5cX7qeHFSjsbDBelKaTwmsmpv8J2lYPAdoz3xUmuf5V8QgxRu5SZyp3/XZ6TGfUZYPKJ0WfO5IbPEjSaRL+VaCXyyPMHR8dGB04hjxodwb+MP61uLqeL0dpV3g3YvT7gA/1Pv4y26/X67zl7/r+zsvLXd/evwL);strokeColor=none;spacingTop=-3;spacingBottom=-3;spacingLeft=-3;spacingRight=-3;points=[];labelBackgroundColor=none;rounded=0;html=1;whiteSpace=wrap;" parent="dV5V6p4PPA7qp1u5CN09-183" vertex="1">
          <mxGeometry x="1.6823529411764706" y="1.6470588235294117" width="68.13529411764705" height="66.70588235294117" as="geometry" />
        </mxCell>
        <mxCell id="dV5V6p4PPA7qp1u5CN09-187" style="vsdxID=36;fillColor=#2d5967;gradientColor=none;shape=stencil(rZPbDoIwDIafZrdNWTls16jvQcKQRWQE8PT2MhejuHBKvOu6fs2/dj+jtCuzRjGOXd+ak7rpvC8Z7Rjnui5Vq/shYrRnlBamVcfWXOrcnZvMVtrobK62w91xkYSAW4rjw2WEBB6+MgcHVLqeBQKEJJ4GRAJIY0AC0TQQII7LI6BoRtC4GqcrN7UNOMhki+wQQYgtg/GBhdH7kgRCLNY+WIQQr5/jewurVrTQ2v8CC8L/8Cs9YAg+Jih0VTkPfd//mmZIOcPR/gk=);strokeColor=none;spacingTop=-3;spacingBottom=-3;spacingLeft=-3;spacingRight=-3;points=[];labelBackgroundColor=none;rounded=0;html=1;whiteSpace=wrap;" parent="dV5V6p4PPA7qp1u5CN09-183" vertex="1">
          <mxGeometry x="27.758823529411764" y="9.882352941176471" width="15.141176470588235" height="48.588235294117645" as="geometry" />
        </mxCell>
        <mxCell id="dV5V6p4PPA7qp1u5CN09-188" style="vsdxID=37;fillColor=#2d5967;gradientColor=none;shape=stencil(nZLLDoIwEEW/pttmmIota8T/IKFII1JSio+/t7VRQQIEd/M4dzKdXsLSrspbSRA6a/RZ3lRhK8IOBFE1lTTKuoiwjLC01EaejO6bIuRt7kkfXfTVT7gH3Z5TTLwK4REq8MqOAa5VM4BjQfkYjpAmfF7AOYWxYAdUiHkB/A/HCY1wyyorguljhRvB5gXTU0awcMx387POArvpl1ZgF3zNUKq6Dl4a9n/N40rBeCx7Ag==);strokeColor=none;spacingTop=-3;spacingBottom=-3;spacingLeft=-3;spacingRight=-3;points=[];labelBackgroundColor=none;rounded=0;html=1;whiteSpace=wrap;" parent="dV5V6p4PPA7qp1u5CN09-183" vertex="1">
          <mxGeometry x="10.935294117647059" y="27.176470588235293" width="22.711764705882352" height="14.823529411764705" as="geometry" />
        </mxCell>
        <mxCell id="dV5V6p4PPA7qp1u5CN09-189" style="vsdxID=38;fillColor=#2d5967;gradientColor=none;shape=stencil(nZLdDoMgDIWfhltSWo167dx7mIiTzIlB3c/bD0aW6Qzu5+5QzteSchjlQ1P2kiEMo9FHeVHV2DDaMUTVNdKo0SpGBaO81kYejJ66yp/70jmdOumz63D1HCLPhKMQbr4SAU/TR2XvgVZ1MyASHJeAsC2SMEDIkyUAYTMsjPGGc91WwIZ9/ew04UBhYL2YOOMCw8Bz/J/2D2v/+Z++AKx4xaJWbetTNb9/j5Et+QhScQc=);strokeColor=none;spacingTop=-3;spacingBottom=-3;spacingLeft=-3;spacingRight=-3;points=[];labelBackgroundColor=none;rounded=0;html=1;whiteSpace=wrap;" parent="dV5V6p4PPA7qp1u5CN09-183" vertex="1">
          <mxGeometry x="37.01176470588236" y="27.176470588235293" width="22.711764705882352" height="14.823529411764705" as="geometry" />
        </mxCell>
        <mxCell id="dV5V6p4PPA7qp1u5CN09-190" value="&lt;div style=&quot;&quot;&gt;&lt;p style=&quot;margin: 0px; text-indent: 0px; direction: ltr;&quot;&gt;&lt;font style=&quot;font-family: &amp;quot;Oracle Sans&amp;quot;; color: rgb(0, 0, 0); direction: ltr; letter-spacing: 0px; line-height: 120%; opacity: 1;&quot;&gt;&lt;font style=&quot;font-size: 12px;&quot;&gt;DRG&lt;/font&gt;&lt;br&gt;&lt;/font&gt;&lt;/p&gt;&lt;/div&gt;" style="verticalAlign=middle;align=center;vsdxID=40;fillColor=none;gradientColor=none;shape=stencil(nZBLDoAgDERP0z3SIyjew0SURgSD+Lu9kMZoXLhwN9O+tukAlrNpJg1SzDH4QW/URgNYgZTkjA4UkwJUgGXng+6DX1zLfmoymdXo17xh5zmRJ6Q42BWCfc2oJfdAr+Yv+AP9Cb7OJ3H/2JG1HNGz/84klThPVCc=);strokeColor=none;spacingTop=-3;spacingBottom=-3;spacingLeft=-3;spacingRight=-3;points=[];labelBackgroundColor=none;rounded=0;html=1;whiteSpace=wrap;" parent="1" vertex="1">
          <mxGeometry x="1353.75" y="516.98" width="110" height="59.5" as="geometry" />
        </mxCell>
        <mxCell id="dV5V6p4PPA7qp1u5CN09-191" value="" style="sketch=0;points=[[0,0,0],[0.25,0,0],[0.5,0,0],[0.75,0,0],[1,0,0],[0,1,0],[0.25,1,0],[0.5,1,0],[0.75,1,0],[1,1,0],[0,0.25,0],[0,0.5,0],[0,0.75,0],[1,0.25,0],[1,0.5,0],[1,0.75,0]];outlineConnect=0;fontColor=#232F3E;fillColor=#8C4FFF;strokeColor=#ffffff;dashed=0;verticalLabelPosition=bottom;verticalAlign=top;align=center;html=1;fontSize=12;fontStyle=0;aspect=fixed;shape=mxgraph.aws4.resourceIcon;resIcon=mxgraph.aws4.site_to_site_vpn;" parent="1" vertex="1">
          <mxGeometry x="1070" y="520" width="60" height="60" as="geometry" />
        </mxCell>
        <mxCell id="dV5V6p4PPA7qp1u5CN09-192" value="2 Site to Site IPSec&amp;nbsp; Tunnels Over Internet" style="text;html=1;align=center;verticalAlign=middle;whiteSpace=wrap;rounded=0;" parent="1" vertex="1">
          <mxGeometry x="1050" y="600" width="100" height="30" as="geometry" />
        </mxCell>
        <mxCell id="dV5V6p4PPA7qp1u5CN09-7" value="&lt;font size=&quot;1&quot;&gt;&lt;b style=&quot;font-size: 12px&quot;&gt;OCI Region say SJC to &lt;i&gt;simulate onprem&lt;/i&gt;&lt;/b&gt;&lt;/font&gt;" style="rounded=1;whiteSpace=wrap;html=1;labelBackgroundColor=none;gradientColor=none;fontFamily=Oracle Sans;fontSize=12;align=left;strokeColor=#9E9892;fillColor=#F5F4F2;verticalAlign=top;fontColor=#312D2A;arcSize=1;spacingRight=5;spacingLeft=5;" parent="1" vertex="1">
          <mxGeometry x="250" y="221.5" width="667.14" height="540" as="geometry" />
        </mxCell>
        <mxCell id="dV5V6p4PPA7qp1u5CN09-12" value="&lt;b&gt;&lt;font color=&quot;#bb511c&quot;&gt;VCN&lt;/font&gt;&lt;/b&gt;" style="whiteSpace=wrap;html=1;strokeWidth=2;dashed=1;align=left;fontFamily=Oracle Sans;verticalAlign=top;fillColor=none;fontColor=#AE562C;strokeColor=#AE562C;spacingLeft=5;" parent="1" vertex="1">
          <mxGeometry x="285.2638036809816" y="293.67021276595744" width="586.601226993865" height="424" as="geometry" />
        </mxCell>
        <mxCell id="dV5V6p4PPA7qp1u5CN09-16" style="edgeStyle=orthogonalEdgeStyle;rounded=0;orthogonalLoop=1;jettySize=auto;html=1;exitX=0.5;exitY=1;exitDx=0;exitDy=0;labelBackgroundColor=none;startArrow=none;startFill=0;endArrow=none;endFill=0;strokeColor=#2c5967;fontFamily=Oracle Sans;fontSize=10.5;fontColor=#312D2A;" parent="1" edge="1">
          <mxGeometry x="143.70552147239263" y="241.79787234042553" as="geometry">
            <mxPoint x="586.20245398773" y="732.3297872340426" as="sourcePoint" />
            <mxPoint x="586.20245398773" y="732.3297872340426" as="targetPoint" />
          </mxGeometry>
        </mxCell>
        <mxCell id="dV5V6p4PPA7qp1u5CN09-18" value="&lt;font color=&quot;#bb511c&quot; style=&quot;font-weight: bold&quot;&gt;Subnet B&lt;/font&gt;&lt;br&gt;&lt;font color=&quot;#312d2a&quot;&gt;10.0.0.0/16&lt;/font&gt;" style="whiteSpace=wrap;html=1;strokeWidth=1;dashed=1;align=left;fontFamily=Oracle Sans;verticalAlign=top;fontColor=#AE562C;strokeColor=#AE562C;fillColor=none;spacingLeft=5;" parent="1" vertex="1">
          <mxGeometry x="308.6871165644171" y="356.8191489361702" width="523.4601226993865" height="304.46808510638294" as="geometry" />
        </mxCell>
        <mxCell id="dV5V6p4PPA7qp1u5CN09-19" value="" style="shape=image;verticalLabelPosition=bottom;verticalAlign=top;imageAspect=0;aspect=fixed;image=data:image/svg+xml,PHN2ZyB4bWxucz0iaHR0cDovL3d3dy53My5vcmcvMjAwMC9zdmciIHhtbG5zOnhsaW5rPSJodHRwOi8vd3d3LnczLm9yZy8xOTk5L3hsaW5rIiB2ZXJzaW9uPSIxLjEiIGlkPSJMYXllcl8xIiB4PSIwcHgiIHk9IjBweCIgdmlld0JveD0iMCAwIDQzLjUgNDIiIHN0eWxlPSJlbmFibGUtYmFja2dyb3VuZDpuZXcgMCAwIDQzLjUgNDI7IiB4bWw6c3BhY2U9InByZXNlcnZlIiB3aWR0aD0iNDMuNSIgaGVpZ2h0PSI0MiI+JiN4YTs8Zz4mI3hhOwk8Zz4mI3hhOwkJPHBhdGggc3R5bGU9ImZpbGw6I0ZGRkZGRjsiIGQ9Ik0zMS4yLDQxLjVjLTIuOCwwLTUuMy0yLTUuOS00LjhoLTcuMWMtMC42LDIuNy0zLDQuOC01LjksNC44Yy0zLjMsMC02LTIuNy02LTYmIzEwOyYjOTsmIzk7JiM5O2MwLTIuMSwxLjItNC4xLDMtNS4ybC0yLjItNi43Yy0wLjIsMC0wLjQsMC0wLjYsMGMtMy4zLDAtNi0yLjctNi02YzAtMy4zLDIuNy02LDYtNmMxLjUsMCwyLjksMC41LDQsMS42TDE2LjMsOSYjMTA7JiM5OyYjOTsmIzk7Yy0wLjMtMC44LTAuNS0xLjYtMC41LTIuNWMwLTMuMywyLjctNiw2LTZzNiwyLjcsNiw2YzAsMC44LTAuMiwxLjctMC41LDIuNWw1LjcsNC4yYzEuMS0xLDIuNS0xLjYsNC0xLjZjMy4zLDAsNiwyLjcsNiw2JiMxMDsmIzk7JiM5OyYjOTtzLTIuNyw2LTYsNmMtMC4yLDAtMC40LDAtMC42LDBsLTIuMiw2LjdjMS44LDEuMSwzLDMuMSwzLDUuMkMzNy4yLDM4LjgsMzQuNSw0MS41LDMxLjIsNDEuNXoiLz4mI3hhOwkJPHBhdGggc3R5bGU9ImZpbGw6I0ZGRkZGRjsiIGQ9Ik0yMS43LDFjMywwLDUuNSwyLjUsNS41LDUuNWMwLDAuOS0wLjIsMS44LTAuNywyLjZsNi40LDQuN2MxLTEuMSwyLjQtMS43LDQtMS43JiMxMDsmIzk7JiM5OyYjOTtjMywwLDUuNSwyLjUsNS41LDUuNWMwLDMtMi41LDUuNS01LjUsNS41Yy0wLjMsMC0wLjcsMC0xLTAuMWwtMi41LDcuNWMxLjgsMC45LDMuMSwyLjgsMy4xLDVjMCwzLTIuNSw1LjUtNS41LDUuNSYjMTA7JiM5OyYjOTsmIzk7Yy0yLjgsMC01LjEtMi4xLTUuNS00LjhoLTcuOWMtMC40LDIuNy0yLjcsNC44LTUuNSw0LjhjLTMsMC01LjUtMi41LTUuNS01LjVjMC0yLjIsMS4zLTQuMSwzLjEtNUw3LjUsMjNjLTAuMywwLjEtMC43LDAuMS0xLDAuMSYjMTA7JiM5OyYjOTsmIzk7Yy0zLDAtNS41LTIuNS01LjUtNS41czIuNS01LjUsNS41LTUuNWMxLjYsMCwzLDAuNyw0LDEuN2w2LjQtNC43Yy0wLjQtMC44LTAuNy0xLjctMC43LTIuNkMxNi4yLDMuNSwxOC43LDEsMjEuNywxIE0yMS43LDAmIzEwOyYjOTsmIzk7JiM5O2MtMy42LDAtNi41LDIuOS02LjUsNi41YzAsMC44LDAuMSwxLjYsMC40LDIuM2wtNS4xLDMuN2MtMS4xLTAuOS0yLjYtMS40LTQtMS40QzIuOSwxMS4xLDAsMTQsMCwxNy42czIuOSw2LjUsNi41LDYuNSYjMTA7JiM5OyYjOTsmIzk7YzAuMSwwLDAuMiwwLDAuMywwbDEuOSw2Yy0xLjgsMS4yLTIuOSwzLjItMi45LDUuNGMwLDMuNiwyLjksNi41LDYuNSw2LjVjMi45LDAsNS41LTIsNi4zLTQuOGg2LjNjMC44LDIuOCwzLjMsNC44LDYuMyw0LjgmIzEwOyYjOTsmIzk7JiM5O2MzLjYsMCw2LjUtMi45LDYuNS02LjVjMC0yLjItMS4xLTQuMi0yLjktNS40bDEuOS02YzAuMSwwLDAuMiwwLDAuMywwYzMuNiwwLDYuNS0yLjksNi41LTYuNWMwLTMuNi0yLjktNi41LTYuNS02LjUmIzEwOyYjOTsmIzk7JiM5O2MtMS41LDAtMi45LDAuNS00LjEsMS40bC01LjEtMy43YzAuMy0wLjcsMC40LTEuNSwwLjQtMi4zQzI4LjMsMi45LDI1LjMsMCwyMS43LDBMMjEuNywweiIvPiYjeGE7CTwvZz4mI3hhOwk8Zz4mI3hhOwkJPHBhdGggc3R5bGU9ImZpbGw6I0JCNTAxQzsiIGQ9Ik0zNywxMi4xYy0xLjYsMC0zLDAuNy00LDEuN2wtNi40LTQuN2MwLjQtMC44LDAuNy0xLjcsMC43LTIuNmMwLTMtMi41LTUuNS01LjUtNS41JiMxMDsmIzk7JiM5OyYjOTtzLTUuNSwyLjUtNS41LDUuNWMwLDAuOSwwLjIsMS44LDAuNywyLjZsLTYuNCw0LjdjLTEtMS0yLjQtMS43LTQtMS43Yy0zLDAtNS41LDIuNS01LjUsNS41czIuNSw1LjUsNS41LDUuNWMwLjMsMCwwLjcsMCwxLTAuMSYjMTA7JiM5OyYjOTsmIzk7bDIuNCw3LjVjLTEuOCwwLjktMy4xLDIuOC0zLjEsNWMwLDMsMi41LDUuNSw1LjUsNS41YzIuOCwwLDUuMS0yLjEsNS41LTQuOGg3LjljMC40LDIuNywyLjcsNC44LDUuNSw0LjhjMywwLDUuNS0yLjUsNS41LTUuNSYjMTA7JiM5OyYjOTsmIzk7YzAtMi4yLTEuMy00LjEtMy4xLTVMMzYsMjNjMC4zLDAuMSwwLjcsMC4xLDEsMC4xYzMsMCw1LjUtMi41LDUuNS01LjVTNDAsMTIuMSwzNywxMi4xeiBNMzEuMiwzOS41Yy0yLjIsMC00LTEuOC00LTQmIzEwOyYjOTsmIzk7JiM5O2MwLTIuMiwxLjgtNCw0LTRzNCwxLjgsNCw0QzM1LjIsMzcuNywzMy40LDM5LjUsMzEuMiwzOS41eiBNMTcuOCwzNC44Yy0wLjItMS4zLTAuOC0yLjQtMS43LTMuM2wzLTQuMmMwLjgsMC40LDEuNywwLjcsMi42LDAuNyYjMTA7JiM5OyYjOTsmIzk7YzAuOSwwLDEuOC0wLjIsMi42LTAuN2wzLDQuMmMtMC45LDAuOC0xLjUsMi0xLjcsMy4zSDE3Ljh6IE04LjMsMzUuNWMwLTIuMiwxLjgtNCw0LTRzNCwxLjgsNCw0YzAsMi4yLTEuOCw0LTQsNCYjMTA7JiM5OyYjOTsmIzk7UzguMywzNy43LDguMywzNS41eiBNNi41LDEzLjVjMi4yLDAsNCwxLjgsNCw0cy0xLjgsNC00LDRzLTQtMS44LTQtNFM0LjMsMTMuNSw2LjUsMTMuNXogTTE3LjcsNi41YzAtMi4yLDEuOC00LDQtNHM0LDEuOCw0LDQmIzEwOyYjOTsmIzk7JiM5O3MtMS44LDQtNCw0UzE3LjcsOC43LDE3LjcsNi41eiBNMzEuNiwxOC41bC00LjksMS42Yy0wLjgtMS42LTIuNC0yLjgtNC4yLTMuMVYxMmMxLjMtMC4yLDIuNC0wLjgsMy4yLTEuN2w2LjQsNC43JiMxMDsmIzk7JiM5OyYjOTtjLTAuNCwwLjgtMC43LDEuNy0wLjcsMi42QzMxLjUsMTcuOSwzMS41LDE4LjIsMzEuNiwxOC41eiBNMjUuOCwyMi41YzAsMi4yLTEuOCw0LTQsNHMtNC0xLjgtNC00czEuOC00LDQtNFMyNS44LDIwLjIsMjUuOCwyMi41eiYjMTA7JiM5OyYjOTsmIzk7IE0yMSwxMlYxN2MtMS45LDAuMy0zLjUsMS40LTQuMiwzLjFsLTQuOS0xLjZjMC4xLTAuMywwLjEtMC42LDAuMS0xYzAtMC45LTAuMi0xLjgtMC43LTIuNmw2LjQtNC43QzE4LjYsMTEuMiwxOS43LDExLjgsMjEsMTJ6JiMxMDsmIzk7JiM5OyYjOTsgTTExLjUsMTkuOWw0LjksMS42Yy0wLjEsMC4zLTAuMSwwLjYtMC4xLDFjMCwxLjYsMC43LDMsMS43LDRsLTMsNC4yYy0wLjgtMC40LTEuNy0wLjctMi42LTAuN2MtMC4zLDAtMC43LDAtMSwwLjFsLTIuNC03LjUmIzEwOyYjOTsmIzk7JiM5O0MxMCwyMiwxMC45LDIxLjEsMTEuNSwxOS45eiBNMzEuMiwzMGMtMC45LDAtMS44LDAuMi0yLjYsMC43bC0zLTQuMmMxLjEtMSwxLjctMi40LDEuNy00YzAtMC4zLDAtMC43LTAuMS0xbDQuOS0xLjYmIzEwOyYjOTsmIzk7JiM5O2MwLjUsMS4xLDEuNSwyLDIuNiwyLjZsLTIuNSw3LjVDMzEuOCwzMCwzMS41LDMwLDMxLjIsMzB6IE0zMywxNy42YzAtMi4yLDEuOC00LDQtNHM0LDEuOCw0LDRzLTEuOCw0LTQsNFMzMywxOS44LDMzLDE3LjZ6Ii8+JiN4YTsJPC9nPiYjeGE7PC9nPiYjeGE7PC9zdmc+;dashed=1;dashPattern=1 1;strokeColor=#bb511c;strokeWidth=3;" parent="1" vertex="1">
          <mxGeometry x="838.7668711656441" y="276.75531914893617" width="32.00846625766871" height="30.5521472392638" as="geometry" />
        </mxCell>
        <mxCell id="dV5V6p4PPA7qp1u5CN09-20" value="" style="shape=image;verticalLabelPosition=bottom;verticalAlign=top;imageAspect=0;aspect=fixed;image=data:image/svg+xml,PHN2ZyB4bWxucz0iaHR0cDovL3d3dy53My5vcmcvMjAwMC9zdmciIHhtbG5zOnhsaW5rPSJodHRwOi8vd3d3LnczLm9yZy8xOTk5L3hsaW5rIiB2ZXJzaW9uPSIxLjEiIGlkPSJMYXllcl8xIiB4PSIwcHgiIHk9IjBweCIgdmlld0JveD0iMCAwIDMyLjM5OTk5NzcxMTE4MTY0IDQyLjE5OTk5Njk0ODI0MjE5IiBzdHlsZT0iZW5hYmxlLWJhY2tncm91bmQ6bmV3IDAgMCAzMi4zIDQyLjI7IiB4bWw6c3BhY2U9InByZXNlcnZlIiB3aWR0aD0iMzIuMzk5OTk3NzExMTgxNjQiIGhlaWdodD0iNDIuMTk5OTk2OTQ4MjQyMTkiPiYjeGE7PGc+JiN4YTsJPGc+JiN4YTsJCTxwYXRoIHN0eWxlPSJmaWxsOiNGRkZGRkY7IiBkPSJNMTUuOCw0MS41QzgsMzguNiw0LjMsMzMuNiwyLjUsMjkuOGMtMi00LjMtMi03LjktMi04LjFWNy4zbDE1LjctNi43bDE1LjYsNi43djE0LjUmIzEwOyYjOTsmIzk7JiM5O2MwLDAuNi0wLjIsMTQuMi0xNS4xLDE5LjdsLTAuNCwwLjJMMTUuOCw0MS41eiIvPiYjeGE7CQk8cGF0aCBzdHlsZT0iZmlsbDojRkZGRkZGOyIgZD0iTTE2LjIsMS4xbDE1LjEsNi41djE0LjJjMCwwLjYtMC4yLDEzLjgtMTQuOCwxOS4ybC0wLjMsMC4xTDE2LDQxQzguMywzOC4yLDQuNywzMy4zLDMsMjkuNiYjMTA7JiM5OyYjOTsmIzk7Yy0xLjktNC4xLTItNy43LTItNy44VjcuNkwxNi4yLDEuMSBNMTYuMiwwbC0wLjQsMC4yTDAuNiw2LjdMMCw2Ljl2MC43djE0LjJjMCwwLjIsMCwzLjksMi4xLDguM2MxLjgsMy44LDUuNiw5LDEzLjYsMTEuOSYjMTA7JiM5OyYjOTsmIzk7bDAuMywwLjFsMC4zLDAuMWwwLjMtMC4xbDAuMy0wLjFjMTUuMy01LjYsMTUuNS0xOS42LDE1LjUtMjAuMlY3LjZWNi45bC0wLjYtMC4zTDE2LjYsMC4yTDE2LjIsMEwxNi4yLDB6Ii8+JiN4YTsJPC9nPiYjeGE7CTxnPiYjeGE7CQk8cGF0aCBzdHlsZT0iZmlsbDpub25lOyIgZD0iTTIuNSw4LjZ2MTMuMmMwLDAuMSwwLDMuNCwxLjgsNy4yYzIuMyw0LjksNi4zLDguNCwxMS45LDEwLjVjMTMuNC01LjEsMTMuNi0xNy4yLDEzLjYtMTcuN1Y4LjYmIzEwOyYjOTsmIzk7JiM5O0wxNi4yLDIuN0wyLjUsOC42eiBNMTYuMSwyOC4zSDd2LTEuNWg5LjFWMjguM3ogTTE2LjEsMjEuNUg3VjIwaDkuMVYyMS41eiBNMTYuMSwxNC4ySDd2LTEuNWg5LjFWMTQuMnogTTIwLjIsMTIuN2wxLjIsMS4ybDMtMyYjMTA7JiM5OyYjOTsmIzk7bDEsMWwtNCw0bC0yLjItMi4yTDIwLjIsMTIuN3ogTTI0LjgsMjIuMmwtMSwxbC0xLjUtMS41bC0xLjUsMS41bC0xLTFsMS41LTEuNWwtMS41LTEuNWwxLTFsMS41LDEuNWwxLjUtMS41bDEsMWwtMS41LDEuNSYjMTA7JiM5OyYjOTsmIzk7TDI0LjgsMjIuMnogTTIwLjIsMjYuOGwxLjIsMS4ybDMtM2wxLDFsLTQsNGwtMi4yLTIuMkwyMC4yLDI2Ljh6Ii8+JiN4YTsJCTxwYXRoIHN0eWxlPSJmaWxsOiNCQjUwMUM7IiBkPSJNMTYuMiwxLjFMMSw3LjZ2MTQuMmMwLDAuMSwwLDMuNywyLDcuOGMxLjcsMy43LDUuNCw4LjYsMTMsMTEuNGwwLjMsMC4xbDAuMy0wLjEmIzEwOyYjOTsmIzk7JiM5O2MxNC42LTUuNCwxNC44LTE4LjcsMTQuOC0xOS4yVjcuNkwxNi4yLDEuMXogTTI5LjgsMjEuOGMwLDAuNS0wLjIsMTIuNi0xMy42LDE3LjdDMTAuNiwzNy40LDYuNiwzMy45LDQuMywyOSYjMTA7JiM5OyYjOTsmIzk7Yy0xLjgtMy45LTEuOC03LjEtMS44LTcuMlY4LjZsMTMuNy01LjlsMTMuNiw1LjlWMjEuOHoiLz4mI3hhOwkJPHJlY3QgeD0iNyIgeT0iMTIuNyIgc3R5bGU9ImZpbGw6I0JCNTAxQzsiIHdpZHRoPSI5LjEiIGhlaWdodD0iMS41Ii8+JiN4YTsJCTxwb2x5Z29uIHN0eWxlPSJmaWxsOiNCQjUwMUM7IiBwb2ludHM9IjI1LjQsMTIgMjQuMywxMSAyMS40LDEzLjkgMjAuMiwxMi43IDE5LjEsMTMuOCAyMS40LDE2ICYjOTsmIzk7Ii8+JiN4YTsJCTxyZWN0IHg9IjciIHk9IjIwIiBzdHlsZT0iZmlsbDojQkI1MDFDOyIgd2lkdGg9IjkuMSIgaGVpZ2h0PSIxLjUiLz4mI3hhOwkJPHBvbHlnb24gc3R5bGU9ImZpbGw6I0JCNTAxQzsiIHBvaW50cz0iMjMuOCwxOC4xIDIyLjMsMTkuNyAyMC43LDE4LjEgMTkuNywxOS4yIDIxLjIsMjAuNyAxOS43LDIyLjIgMjAuNywyMy4zIDIyLjMsMjEuOCAmIzEwOyYjOTsmIzk7JiM5OzIzLjgsMjMuMyAyNC44LDIyLjIgMjMuMywyMC43IDI0LjgsMTkuMiAmIzk7JiM5OyIvPiYjeGE7CQk8cmVjdCB4PSI3IiB5PSIyNi44IiBzdHlsZT0iZmlsbDojQkI1MDFDOyIgd2lkdGg9IjkuMSIgaGVpZ2h0PSIxLjUiLz4mI3hhOwkJPHBvbHlnb24gc3R5bGU9ImZpbGw6I0JCNTAxQzsiIHBvaW50cz0iMjUuNCwyNi4xIDI0LjMsMjUuMSAyMS40LDI4IDIwLjIsMjYuOCAxOS4xLDI3LjkgMjEuNCwzMC4xICYjOTsmIzk7Ii8+JiN4YTsJPC9nPiYjeGE7PC9nPiYjeGE7PC9zdmc+;dashed=1;dashPattern=1 1;strokeColor=#bb511c;strokeWidth=3;" parent="1" vertex="1">
          <mxGeometry x="740.4907975460122" y="342.1595744680851" width="23.280736196319015" height="30.5521472392638" as="geometry" />
        </mxCell>
        <mxCell id="dV5V6p4PPA7qp1u5CN09-23" value="" style="shape=image;verticalLabelPosition=bottom;verticalAlign=top;imageAspect=0;aspect=fixed;image=data:image/svg+xml,PHN2ZyB4bWxucz0iaHR0cDovL3d3dy53My5vcmcvMjAwMC9zdmciIHhtbG5zOnhsaW5rPSJodHRwOi8vd3d3LnczLm9yZy8xOTk5L3hsaW5rIiB2ZXJzaW9uPSIxLjEiIGlkPSJMYXllcl8xIiB4PSIwcHgiIHk9IjBweCIgdmlld0JveD0iMCAwIDQyIDQyIiBzdHlsZT0iZW5hYmxlLWJhY2tncm91bmQ6bmV3IDAgMCA0MiA0MjsiIHhtbDpzcGFjZT0icHJlc2VydmUiIHdpZHRoPSI0MiIgaGVpZ2h0PSI0MiI+JiN4YTs8Zz4mI3hhOwk8Zz4mI3hhOwkJPHJlY3QgeD0iMC41IiB5PSIwLjUiIHN0eWxlPSJmaWxsOiNGRkZGRkY7IiB3aWR0aD0iNDEiIGhlaWdodD0iNDEiLz4mI3hhOwkJPHBhdGggc3R5bGU9ImZpbGw6I0ZGRkZGRjsiIGQ9Ik00MSwxdjQwSDFWMUg0MSBNNDIsMGgtMUgxSDB2MXY0MHYxaDFoNDBoMXYtMVYxVjBMNDIsMHoiLz4mI3hhOwk8L2c+JiN4YTsJPGc+JiN4YTsJCTxwYXRoIHN0eWxlPSJmaWxsOiNCQjUwMUM7IiBkPSJNMSwxdjQwaDQwVjFIMXogTTM5LjUsMTMuOEgxMy42VjIuNWgyNS45VjEzLjh6IE0yLjUsMjguMmg5LjZ2MTEuNEgyLjVWMjguMnogTTEyLjEsMi41djExLjRIMi41JiMxMDsmIzk7JiM5OyYjOTtWMi41SDEyLjF6IE0xMi4xLDE1LjN2MTEuNEgyLjVWMTUuM0gxMi4xeiBNMTMuNiwzOS41VjI4LjJoMjUuOXYxMS40SDEzLjZ6IE0xMy42LDI2LjdWMTUuM2gyNS45djExLjRIMTMuNnoiLz4mI3hhOwkJPHBvbHlnb24gc3R5bGU9ImZpbGw6I0JCNTAxQzsiIHBvaW50cz0iMTUsMTIuMyAxNi43LDEyLjMgMTcuNiwxMC42IDE4LjUsMTIuMyAyMC4xLDEyLjMgMTguNiw5LjYgMjAsNy4xIDE4LjQsNy4xIDE3LjYsOC43ICYjMTA7JiM5OyYjOTsmIzk7MTYuNyw3LjEgMTUuMSw3LjEgMTYuNiw5LjYgJiM5OyYjOTsiLz4mI3hhOwkJPHJlY3QgeD0iMjAuOSIgeT0iMTEuMSIgc3R5bGU9ImZpbGw6I0JCNTAxQzsiIHdpZHRoPSIxLjQiIGhlaWdodD0iMS4yIi8+JiN4YTsJCTxwb2x5Z29uIHN0eWxlPSJmaWxsOiNCQjUwMUM7IiBwb2ludHM9IjI1LDEyLjMgMjUuOSwxMC42IDI2LjgsMTIuMyAyOC40LDEyLjMgMjYuOCw5LjYgMjguMyw3LjEgMjYuOCw3LjEgMjUuOSw4LjcgMjUsNy4xICYjMTA7JiM5OyYjOTsmIzk7MjMuNCw3LjEgMjQuOSw5LjYgMjMuNCwxMi4zICYjOTsmIzk7Ii8+JiN4YTsJCTxyZWN0IHg9IjI4LjkiIHk9IjExLjEiIHN0eWxlPSJmaWxsOiNCQjUwMUM7IiB3aWR0aD0iMS40IiBoZWlnaHQ9IjEuMiIvPiYjeGE7CQk8cG9seWdvbiBzdHlsZT0iZmlsbDojQkI1MDFDOyIgcG9pbnRzPSIzMi43LDEyLjMgMzMuNiwxMC42IDM0LjYsMTIuMyAzNi4xLDEyLjMgMzQuNiw5LjYgMzYsNy4xIDM0LjUsNy4xIDMzLjYsOC43IDMyLjcsNy4xICYjMTA7JiM5OyYjOTsmIzk7MzEuMiw3LjEgMzIuNiw5LjYgMzEuMSwxMi4zICYjOTsmIzk7Ii8+JiN4YTsJCTxyZWN0IHg9IjM2LjYiIHk9IjExLjEiIHN0eWxlPSJmaWxsOiNCQjUwMUM7IiB3aWR0aD0iMS40IiBoZWlnaHQ9IjEuMiIvPiYjeGE7CQk8cG9seWdvbiBzdHlsZT0iZmlsbDojQkI1MDFDOyIgcG9pbnRzPSIyMCwyMC4xIDE4LjQsMjAuMSAxNy42LDIxLjcgMTYuNywyMC4xIDE1LjEsMjAuMSAxNi42LDIyLjYgMTUsMjUuMyAxNi43LDI1LjMgMTcuNiwyMy42ICYjMTA7JiM5OyYjOTsmIzk7MTguNSwyNS4zIDIwLjEsMjUuMyAxOC42LDIyLjYgJiM5OyYjOTsiLz4mI3hhOwkJPHJlY3QgeD0iMjAuOSIgeT0iMjQiIHN0eWxlPSJmaWxsOiNCQjUwMUM7IiB3aWR0aD0iMS40IiBoZWlnaHQ9IjEuMiIvPiYjeGE7CQk8cG9seWdvbiBzdHlsZT0iZmlsbDojQkI1MDFDOyIgcG9pbnRzPSIyOC4zLDIwLjEgMjYuOCwyMC4xIDI1LjksMjEuNyAyNSwyMC4xIDIzLjQsMjAuMSAyNC45LDIyLjYgMjMuNCwyNS4zIDI1LDI1LjMgMjUuOSwyMy42ICYjMTA7JiM5OyYjOTsmIzk7MjYuOCwyNS4zIDI4LjQsMjUuMyAyNi44LDIyLjYgJiM5OyYjOTsiLz4mI3hhOwkJPHJlY3QgeD0iMjguOSIgeT0iMjQiIHN0eWxlPSJmaWxsOiNCQjUwMUM7IiB3aWR0aD0iMS40IiBoZWlnaHQ9IjEuMiIvPiYjeGE7CQk8cG9seWdvbiBzdHlsZT0iZmlsbDojQkI1MDFDOyIgcG9pbnRzPSIzNiwyMC4xIDM0LjUsMjAuMSAzMy42LDIxLjcgMzIuNywyMC4xIDMxLjIsMjAuMSAzMi42LDIyLjYgMzEuMSwyNS4zIDMyLjcsMjUuMyAmIzEwOyYjOTsmIzk7JiM5OzMzLjYsMjMuNiAzNC42LDI1LjMgMzYuMSwyNS4zIDM0LjYsMjIuNiAmIzk7JiM5OyIvPiYjeGE7CQk8cmVjdCB4PSIzNi42IiB5PSIyNCIgc3R5bGU9ImZpbGw6I0JCNTAxQzsiIHdpZHRoPSIxLjQiIGhlaWdodD0iMS4yIi8+JiN4YTsJCTxwb2x5Z29uIHN0eWxlPSJmaWxsOiNCQjUwMUM7IiBwb2ludHM9IjIwLDMyLjkgMTguNCwzMi45IDE3LjYsMzQuNCAxNi43LDMyLjkgMTUuMSwzMi45IDE2LjYsMzUuMyAxNSwzOCAxNi43LDM4IDE3LjYsMzYuMyAmIzEwOyYjOTsmIzk7JiM5OzE4LjUsMzggMjAuMSwzOCAxOC42LDM1LjQgJiM5OyYjOTsiLz4mI3hhOwkJPHJlY3QgeD0iMjAuOSIgeT0iMzYuOCIgc3R5bGU9ImZpbGw6I0JCNTAxQzsiIHdpZHRoPSIxLjQiIGhlaWdodD0iMS4yIi8+JiN4YTsJCTxwb2x5Z29uIHN0eWxlPSJmaWxsOiNCQjUwMUM7IiBwb2ludHM9IjI4LjMsMzIuOSAyNi44LDMyLjkgMjUuOSwzNC40IDI1LDMyLjkgMjMuNCwzMi45IDI0LjksMzUuMyAyMy40LDM4IDI1LDM4IDI1LjksMzYuMyAmIzEwOyYjOTsmIzk7JiM5OzI2LjgsMzggMjguNCwzOCAyNi44LDM1LjQgJiM5OyYjOTsiLz4mI3hhOwkJPHJlY3QgeD0iMjguOSIgeT0iMzYuOCIgc3R5bGU9ImZpbGw6I0JCNTAxQzsiIHdpZHRoPSIxLjQiIGhlaWdodD0iMS4yIi8+JiN4YTsJCTxwb2x5Z29uIHN0eWxlPSJmaWxsOiNCQjUwMUM7IiBwb2ludHM9IjM2LDMyLjkgMzQuNSwzMi45IDMzLjYsMzQuNCAzMi43LDMyLjkgMzEuMiwzMi45IDMyLjYsMzUuMyAzMS4xLDM4IDMyLjcsMzggMzMuNiwzNi4zICYjMTA7JiM5OyYjOTsmIzk7MzQuNiwzOCAzNi4xLDM4IDM0LjYsMzUuNCAmIzk7JiM5OyIvPiYjeGE7CQk8cmVjdCB4PSIzNi42IiB5PSIzNi44IiBzdHlsZT0iZmlsbDojQkI1MDFDOyIgd2lkdGg9IjEuNCIgaGVpZ2h0PSIxLjIiLz4mI3hhOwk8L2c+JiN4YTs8L2c+JiN4YTs8L3N2Zz4=;fontColor=#312D2A;strokeColor=#AE562C;fillColor=#FCFBFA;" parent="1" vertex="1">
          <mxGeometry x="781.2269938650306" y="342.1595744680851" width="30.5521472392638" height="30.5521472392638" as="geometry" />
        </mxCell>
        <mxCell id="dV5V6p4PPA7qp1u5CN09-70" value="CPE&#xa;(VM with LibreSwan and FRR)" style="shape=image;verticalLabelPosition=bottom;verticalAlign=top;imageAspect=0;aspect=fixed;image=data:image/svg+xml,PHN2ZyB4bWxucz0iaHR0cDovL3d3dy53My5vcmcvMjAwMC9zdmciIHhtbG5zOnhsaW5rPSJodHRwOi8vd3d3LnczLm9yZy8xOTk5L3hsaW5rIiB2ZXJzaW9uPSIxLjEiIGlkPSJMYXllcl8xIiB4PSIwcHgiIHk9IjBweCIgdmlld0JveD0iMCAwIDQyIDQyIiBzdHlsZT0iZW5hYmxlLWJhY2tncm91bmQ6bmV3IDAgMCA0MiA0MjsiIHhtbDpzcGFjZT0icHJlc2VydmUiIHdpZHRoPSI0MiIgaGVpZ2h0PSI0MiI+JiN4YTs8c3R5bGUgdHlwZT0idGV4dC9jc3MiPiYjeGE7CS5zdDB7ZmlsbDojRkZGRkZGO30mI3hhOwkuc3Qxe2ZpbGw6IzJDNTk2Nzt9JiN4YTs8L3N0eWxlPiYjeGE7PGc+JiN4YTsJPGc+JiN4YTsJCTxwYXRoIGNsYXNzPSJzdDAiIGQ9Ik0yLjY3LDQxLjVjLTEuMTksMC0yLjE3LTAuOTctMi4xNy0yLjE3VjIuNjdjMC0xLjE5LDAuOTctMi4xNywyLjE3LTIuMTdoMzYuNjdjMS4xOSwwLDIuMTcsMC45NywyLjE3LDIuMTcmIzEwOyYjOTsmIzk7JiM5O3YzNi42N2MwLDEuMTktMC45NywyLjE3LTIuMTcsMi4xN0gyLjY3eiIvPiYjeGE7CQk8cGF0aCBjbGFzcz0ic3QwIiBkPSJNMzkuMzMsMUM0MC4yNSwxLDQxLDEuNzUsNDEsMi42N3YzNi42N2MwLDAuOTItMC43NSwxLjY3LTEuNjcsMS42N0gyLjY3QzEuNzUsNDEsMSw0MC4yNSwxLDM5LjMzVjIuNjcmIzEwOyYjOTsmIzk7JiM5O0MxLDEuNzUsMS43NSwxLDIuNjcsMUgzOS4zMyBNMzkuMzMsMEgyLjY3QzEuMiwwLDAsMS4yLDAsMi42N3YzNi42N0MwLDQwLjgsMS4yLDQyLDIuNjcsNDJoMzYuNjdDNDAuOCw0Miw0Miw0MC44LDQyLDM5LjMzVjIuNjcmIzEwOyYjOTsmIzk7JiM5O0M0MiwxLjIsNDAuOCwwLDM5LjMzLDBMMzkuMzMsMHoiLz4mI3hhOwk8L2c+JiN4YTsJPGc+JiN4YTsJCTxwYXRoIGNsYXNzPSJzdDEiIGQ9Ik0zOS4zMywxSDIuNjdDMS43NSwxLDEsMS43NSwxLDIuNjd2MzYuNjdDMSw0MC4yNSwxLjc1LDQxLDIuNjcsNDFoMzYuNjdjMC45MiwwLDEuNjctMC43NSwxLjY3LTEuNjdWMi42NyYjMTA7JiM5OyYjOTsmIzk7QzQxLDEuNzUsNDAuMjUsMSwzOS4zMywxeiBNMzkuNTIsMzkuMzNjMCwwLjEtMC4wOCwwLjE5LTAuMTksMC4xOUgyLjY3Yy0wLjEsMC0wLjE5LTAuMDgtMC4xOS0wLjE5VjIuNjcmIzEwOyYjOTsmIzk7JiM5O2MwLTAuMSwwLjA4LTAuMTksMC4xOS0wLjE5aDM2LjY3YzAuMSwwLDAuMTksMC4wOCwwLjE5LDAuMTlWMzkuMzN6Ii8+JiN4YTsJCTxwYXRoIGNsYXNzPSJzdDEiIGQ9Ik02LjU2LDM1LjQ0aDI5LjA3di04Ljg5SDYuNTZWMzUuNDR6IE04LjA0LDI4LjA0aDI2LjExdjUuOTNIOC4wNFYyOC4wNHoiLz4mI3hhOwkJPGNpcmNsZSBjbGFzcz0ic3QxIiBjeD0iMzAuODEiIGN5PSIzMSIgcj0iMS4xMSIvPiYjeGE7CQk8cGF0aCBjbGFzcz0ic3QxIiBkPSJNMTUuNDQsNi41Nkg2LjU2djguODloOC44OVY2LjU2eiBNMTMuOTYsMTMuOTZIOC4wNFY4LjA0aDUuOTNWMTMuOTZ6Ii8+JiN4YTsJCTxwYXRoIGNsYXNzPSJzdDEiIGQ9Ik0yNS40NCw2LjU2aC04Ljg5djguODloOC44OVY2LjU2eiBNMjMuOTYsMTMuOTZoLTUuOTNWOC4wNGg1LjkzVjEzLjk2eiIvPiYjeGE7CQk8cGF0aCBjbGFzcz0ic3QxIiBkPSJNMTUuNDQsMTYuNTZINi41NnY4Ljg5aDguODlWMTYuNTZ6IE0xMy45NiwyMy45Nkg4LjA0di01LjkzaDUuOTNWMjMuOTZ6Ii8+JiN4YTsJCTxwYXRoIGNsYXNzPSJzdDEiIGQ9Ik0yNS40NCwxNi41NmgtOC44OXY4Ljg5aDguODlWMTYuNTZ6IE0yMy45NiwyMy45NmgtNS45M3YtNS45M2g1LjkzVjIzLjk2eiIvPiYjeGE7CQk8cGF0aCBjbGFzcz0ic3QxIiBkPSJNMzUuNDQsNi41NmgtOC44OXY4Ljg5aDguODlWNi41NnogTTMzLjk2LDEzLjk2aC01LjkzVjguMDRoNS45M1YxMy45NnoiLz4mI3hhOwkJPHBhdGggY2xhc3M9InN0MSIgZD0iTTM1LjQ0LDE2LjU2aC04Ljg5djguODloOC44OVYxNi41NnogTTMzLjk2LDIzLjk2aC01Ljkzdi01LjkzaDUuOTNWMjMuOTZ6Ii8+JiN4YTsJPC9nPiYjeGE7PC9nPiYjeGE7PC9zdmc+" parent="1" vertex="1">
          <mxGeometry x="648.8384049079755" y="447.6565957446808" width="91.6564417177914" height="91.6564417177914" as="geometry" />
        </mxCell>
        <mxCell id="dV5V6p4PPA7qp1u5CN09-71" value="VM A" style="shape=image;verticalLabelPosition=bottom;verticalAlign=top;imageAspect=0;aspect=fixed;image=data:image/svg+xml,PHN2ZyB4bWxucz0iaHR0cDovL3d3dy53My5vcmcvMjAwMC9zdmciIHhtbG5zOnhsaW5rPSJodHRwOi8vd3d3LnczLm9yZy8xOTk5L3hsaW5rIiB2ZXJzaW9uPSIxLjEiIGlkPSJMYXllcl8xIiB4PSIwcHgiIHk9IjBweCIgdmlld0JveD0iMCAwIDQyIDQyIiBzdHlsZT0iZW5hYmxlLWJhY2tncm91bmQ6bmV3IDAgMCA0MiA0MjsiIHhtbDpzcGFjZT0icHJlc2VydmUiIHdpZHRoPSI0MiIgaGVpZ2h0PSI0MiI+JiN4YTs8c3R5bGUgdHlwZT0idGV4dC9jc3MiPiYjeGE7CS5zdDB7ZmlsbDojRkZGRkZGO30mI3hhOwkuc3Qxe2ZpbGw6IzJDNTk2Nzt9JiN4YTs8L3N0eWxlPiYjeGE7PGc+JiN4YTsJPGc+JiN4YTsJCTxwYXRoIGNsYXNzPSJzdDAiIGQ9Ik0yLjY3LDQxLjVjLTEuMTksMC0yLjE3LTAuOTctMi4xNy0yLjE3VjIuNjdjMC0xLjE5LDAuOTctMi4xNywyLjE3LTIuMTdoMzYuNjdjMS4xOSwwLDIuMTcsMC45NywyLjE3LDIuMTcmIzEwOyYjOTsmIzk7JiM5O3YzNi42N2MwLDEuMTktMC45NywyLjE3LTIuMTcsMi4xN0gyLjY3eiIvPiYjeGE7CQk8cGF0aCBjbGFzcz0ic3QwIiBkPSJNMzkuMzMsMUM0MC4yNSwxLDQxLDEuNzUsNDEsMi42N3YzNi42N2MwLDAuOTItMC43NSwxLjY3LTEuNjcsMS42N0gyLjY3QzEuNzUsNDEsMSw0MC4yNSwxLDM5LjMzVjIuNjcmIzEwOyYjOTsmIzk7JiM5O0MxLDEuNzUsMS43NSwxLDIuNjcsMUgzOS4zMyBNMzkuMzMsMEgyLjY3QzEuMiwwLDAsMS4yLDAsMi42N3YzNi42N0MwLDQwLjgsMS4yLDQyLDIuNjcsNDJoMzYuNjdDNDAuOCw0Miw0Miw0MC44LDQyLDM5LjMzVjIuNjcmIzEwOyYjOTsmIzk7JiM5O0M0MiwxLjIsNDAuOCwwLDM5LjMzLDBMMzkuMzMsMHoiLz4mI3hhOwk8L2c+JiN4YTsJPGc+JiN4YTsJCTxwYXRoIGNsYXNzPSJzdDEiIGQ9Ik0zOS4zMywxSDIuNjdDMS43NSwxLDEsMS43NSwxLDIuNjd2MzYuNjdDMSw0MC4yNSwxLjc1LDQxLDIuNjcsNDFoMzYuNjdjMC45MiwwLDEuNjctMC43NSwxLjY3LTEuNjdWMi42NyYjMTA7JiM5OyYjOTsmIzk7QzQxLDEuNzUsNDAuMjUsMSwzOS4zMywxeiBNMzkuNTIsMzkuMzNjMCwwLjEtMC4wOCwwLjE5LTAuMTksMC4xOUgyLjY3Yy0wLjEsMC0wLjE5LTAuMDgtMC4xOS0wLjE5VjIuNjcmIzEwOyYjOTsmIzk7JiM5O2MwLTAuMSwwLjA4LTAuMTksMC4xOS0wLjE5aDM2LjY3YzAuMSwwLDAuMTksMC4wOCwwLjE5LDAuMTlWMzkuMzN6Ii8+JiN4YTsJCTxwYXRoIGNsYXNzPSJzdDEiIGQ9Ik02LjU2LDM1LjQ0aDI5LjA3di04Ljg5SDYuNTZWMzUuNDR6IE04LjA0LDI4LjA0aDI2LjExdjUuOTNIOC4wNFYyOC4wNHoiLz4mI3hhOwkJPGNpcmNsZSBjbGFzcz0ic3QxIiBjeD0iMzAuODEiIGN5PSIzMSIgcj0iMS4xMSIvPiYjeGE7CQk8cGF0aCBjbGFzcz0ic3QxIiBkPSJNMTUuNDQsNi41Nkg2LjU2djguODloOC44OVY2LjU2eiBNMTMuOTYsMTMuOTZIOC4wNFY4LjA0aDUuOTNWMTMuOTZ6Ii8+JiN4YTsJCTxwYXRoIGNsYXNzPSJzdDEiIGQ9Ik0yNS40NCw2LjU2aC04Ljg5djguODloOC44OVY2LjU2eiBNMjMuOTYsMTMuOTZoLTUuOTNWOC4wNGg1LjkzVjEzLjk2eiIvPiYjeGE7CQk8cGF0aCBjbGFzcz0ic3QxIiBkPSJNMTUuNDQsMTYuNTZINi41NnY4Ljg5aDguODlWMTYuNTZ6IE0xMy45NiwyMy45Nkg4LjA0di01LjkzaDUuOTNWMjMuOTZ6Ii8+JiN4YTsJCTxwYXRoIGNsYXNzPSJzdDEiIGQ9Ik0yNS40NCwxNi41NmgtOC44OXY4Ljg5aDguODlWMTYuNTZ6IE0yMy45NiwyMy45NmgtNS45M3YtNS45M2g1LjkzVjIzLjk2eiIvPiYjeGE7CQk8cGF0aCBjbGFzcz0ic3QxIiBkPSJNMzUuNDQsNi41NmgtOC44OXY4Ljg5aDguODlWNi41NnogTTMzLjk2LDEzLjk2aC01LjkzVjguMDRoNS45M1YxMy45NnoiLz4mI3hhOwkJPHBhdGggY2xhc3M9InN0MSIgZD0iTTM1LjQ0LDE2LjU2aC04Ljg5djguODloOC44OVYxNi41NnogTTMzLjk2LDIzLjk2aC01Ljkzdi01LjkzaDUuOTNWMjMuOTZ6Ii8+JiN4YTsJPC9nPiYjeGE7PC9nPiYjeGE7PC9zdmc+" parent="1" vertex="1">
          <mxGeometry x="374.4969325153374" y="455.79787234042556" width="75.36196319018404" height="75.36196319018404" as="geometry" />
        </mxCell>
        <mxCell id="dV5V6p4PPA7qp1u5CN09-174" value="" style="image;aspect=fixed;perimeter=ellipsePerimeter;html=1;align=center;shadow=0;dashed=0;spacingTop=3;image=img/lib/active_directory/internet_cloud.svg;" parent="1" vertex="1">
          <mxGeometry x="1050" y="410.99999999999994" width="100" height="63" as="geometry" />
        </mxCell>
        <mxCell id="dV5V6p4PPA7qp1u5CN09-198" value="" style="group" parent="1" vertex="1" connectable="0">
          <mxGeometry x="832.15" y="491.76" width="69.72" height="65" as="geometry" />
        </mxCell>
        <UserObject label="Internet Gateway" placeholders="1" name="Variable" id="dV5V6p4PPA7qp1u5CN09-199">
          <mxCell style="text;html=1;strokeColor=none;fillColor=#F5F4F2;align=center;verticalAlign=middle;whiteSpace=wrap;overflow=hidden;container=0;" parent="dV5V6p4PPA7qp1u5CN09-198" vertex="1">
            <mxGeometry x="13.86" y="36" width="51" height="34" as="geometry" />
          </mxCell>
        </UserObject>
        <mxCell id="dV5V6p4PPA7qp1u5CN09-200" value="" style="shape=image;aspect=fixed;image=data:image/svg+xml,PHN2ZyB4bWxucz0iaHR0cDovL3d3dy53My5vcmcvMjAwMC9zdmciIHZpZXdCb3g9IjAgMCAzOS4zMSA0Mi44MyI+PGRlZnM+PHN0eWxlPi5jbHMtMXtmaWxsOiNmZmY7fS5jbHMtMntmaWxsOiMyYzU5Njc7fTwvc3R5bGU+PC9kZWZzPjx0aXRsZT5kcmF3aW9Bc3NldCAxPC90aXRsZT48ZyBpZD0iTGF5ZXJfMiIgZGF0YS1uYW1lPSJMYXllciAyIj48ZyBpZD0iTGF5ZXJfMS0yIiBkYXRhLW5hbWU9IkxheWVyIDEiPjxwYXRoIGNsYXNzPSJjbHMtMSIgZD0iTTE1LjU1LDM4LDE3LDM2LjU5Yy0uMy0uMDUtLjYtLjExLS45LS4xOWwtLjM5LS4wOWMtLjI3LS4wNy0uNTMtLjE1LS43OS0uMjRhNSw1LDAsMCwxLS41MS0uMTdsLS42My0uMjUtLjYzLS4yNy0uNDEtLjJjLS4zMS0uMTYtLjU2LS4yOS0uOC0uNDNsLS4yOS0uMThjLS4zMS0uMTktLjU4LS4zNi0uODMtLjU0bC0uNDMtLjMxLS40My0uMzItLjQxLS4zNCwwLDBBMTUuNDgsMTUuNDgsMCwwLDEsOCwzMS41M0g4bC0uMzYtLjQxLS4zMi0uNDNMNywzMC4yN2MtLjE4LS4yNi0uMzUtLjUyLS41Mi0uNzlsLS4yLS4zNGMtLjE0LS4yNC0uMjctLjQ4LS40LS43M3MtLjE3LS4zMy0uMjMtLjQ3LS4xOS0uNDItLjI3LS42My0uMTgtLjQyLS4yNS0uNjNBNCw0LDAsMCwxLDUsMjYuMjNjLS4xMS0uMzItLjE5LS41OC0uMjYtLjg1TDQuNjYsMjVjLS4wNy0uMy0uMTQtLjYxLS4xOS0uOTJsLS4wOC0uNWMwLS4xOC0uMDYtLjM2LS4wOC0uNTVsMC0uNDhILjVWMjAuMjlINC4yOGwwLS40OGMwLS4xOS4wNS0uMzcuMDgtLjU1bC4wOC0uNWMwLS4zMS4xMi0uNjIuMi0uOTNsLjA5LS4zOGMuMDctLjI3LjE1LS41My4yNC0uOHMuMTEtLjMzLjE2LS41LjE3LS40My4yNi0uNjQuMTctLjQxLjI3LS42MmwuMjEtLjQzYy4xNS0uMjkuMjgtLjU0LjQyLS43N2wuMjEtLjM1cS4yNC0uMzkuNTEtLjc4bC4zMS0uNDJjLjEtLjE1LjIxLS4zLjMyLS40NEw4LDExLjI4bDAsMEExNC40NCwxNC40NCwwLDAsMSw5LjU1LDkuNzloMGwuNC0uMzUuNDUtLjMzLjQtLjNjLjI2LS4xOC41My0uMzUuNzktLjUxbC4zNC0uMjEuNzMtLjQuMSwwLC4zOC0uMTlxLjMxLS4xNS42My0uMjdsLjYzLS4yNi40NS0uMTUuODUtLjI1LjM4LS4xTDE3LDYuMjMsMTUuNTUsNC44MWw0LjEtNC4xLDQuMSw0LjFMMjIuMzMsNi4yM2wuOS4xOS4zOS4xYy4yNy4wNy41My4xNS43OS4yNGwuNTEuMTYuNjMuMjYuNjMuMjcuMzkuMTkuODEuNDQuMy4xOGMuMzEuMTkuNTcuMzYuODMuNTRsLjQzLjMxLjQzLjMyLjQxLjM0LDAsMGExNS4yNywxNS4yNywwLDAsMSwxLjUxLDEuNWgwbC4zNi40Mi4zMy40NC4zLjQycS4yNy4zOS41MS43OGwuMjEuMzRjLjE0LjI1LjI3LjQ5LjM5LjczbC4yNC40OHEuMTUuMzEuMjcuNjNjLjA5LjIxLjE4LjQyLjI1LjYzcy4xMS4zMS4xNi40Ny4xOC41Ni4yNS44M2wuMDkuMzljLjA4LjMuMTQuNjEuMi45MmwuMDguNWE0Ljg2LDQuODYsMCwwLDEsLjA3LjU1bDAsLjQ4aDMuNzd2Mi4yNUgzNUwzNSwyM2E1LDUsMCwwLDEtLjA3LjU0bC0uMDguNTFjLS4wNi4zMS0uMTIuNjItLjIuOTJsLS4wOS4zOWMtLjA3LjI3LS4xNS41My0uMjQuNzlhNSw1LDAsMCwxLS4xNy41MWMtLjA3LjIxLS4xNi40Mi0uMjUuNjNzLS4xNy40Mi0uMjcuNjNsLS4yMi40NGMtLjE0LjI4LS4yNy41Mi0uNDEuNzZsLS4yMS4zNGMtLjE2LjI3LS4zMy41My0uNTEuNzlsLS4zLjRhNC44NCw0Ljg0LDAsMCwxLS4zMy40NmwtLjM1LjQzLDAsMEExNS4yNywxNS4yNywwLDAsMSwyOS43NiwzM2gwbC0uNC4zNS0uNDMuMzEtLjQzLjMyYy0uMjYuMTgtLjUyLjM1LS43OS41MWwtLjM0LjIxYy0uMjQuMTQtLjQ4LjI3LS43My4zOWwtLjQ3LjI0LS42My4yNy0uNjMuMjUtLjUxLjE3Yy0uMjYuMDktLjUyLjE3LS43OS4yNGwtLjM5LjA5Yy0uMy4wOC0uNi4xNC0uOS4xOUwyMy43NSwzOGwtNC4xLDQuMVptNS4yMy0uMTlMMjIsMzYuNjVsLS4xNSwwYTUsNSwwLDAsMS0uNTQuMDdsLS40OCwwWm0tMi4yNSwwdi0xbC0uNDgsMGE0Ljg2LDQuODYsMCwwLDEtLjU1LS4wN2wtLjE0LDBaTTIxLjI2LDYuMDdsLjU0LjA4LjE1LDBMMjAuNzgsNVY2Wm0tMy45LjEuMTQsMCwuNTUtLjA4TDE4LjUzLDZWNVoiLz48cGF0aCBjbGFzcz0iY2xzLTEiIGQ9Ik0xOS42NSwxLjQxbDEuNTEsMS41MS4wNS4wNSwxLjg0LDEuODQtLjg4Ljg4LTEtMS0uOTMtLjk0VjYuNTJsLjkzLjA3djBsLjcyLjExLjMsMGMuMywwLC41OS4xMi44OS4xOWwuMzcuMDkuNzcuMjMuNDkuMTYuNjEuMjVMMjYsNy45bC40Ni4yM2MuMjQuMTIuNDcuMjQuNy4zOGwuMzMuMmMuMjYuMTYuNTIuMzIuNzcuNWwuMjMuMThjLjIuMTQuNC4yOC41OS40M2gwYTE1LjI1LDE1LjI1LDAsMCwxLDIuMiwyLjJoMGMuMTUuMTkuMjkuMzkuNDMuNThsLjE4LjI0Yy4xOC4yNS4zNC41MS41Ljc3cy4xMy4yMS4yLjMzLjI2LjQ2LjM4LjcuMTUuMzEuMjMuNDYuMTguNC4yNi42MS4xNy40LjI0LjYxLjExLjMzLjE3LjQ5LjE2LjUxLjIzLjc3bC4wOS4zN2MuMDcuMy4xMy41OS4xOS44OSwwLC4xLDAsLjIsMCwuM3MuMDguNDguMTEuNzJoMHEwLC40Ny4wNi45M2gzLjc3VjIySDM0LjU0cTAsLjQ3LS4wNi45M2gwYzAsLjI0LS4wNy40OC0uMTEuNzJzMCwuMiwwLC4zYy0uMDYuMy0uMTIuNTktLjE5Ljg5bC0uMDkuMzdjLS4wNy4yNi0uMTUuNTEtLjIzLjc3cy0uMTEuMzItLjE3LjQ5LS4xNi40MS0uMjQuNjEtLjE3LjQxLS4yNi42MWwtLjIzLjQ2LS4zOC43LS4yLjMzYy0uMTYuMjYtLjMyLjUxLS41Ljc2bC0uMTguMjVjLS4xNC4xOS0uMjguMzktLjQzLjU4aDBBMTUuMjUsMTUuMjUsMCwwLDEsMjksMzNoMGMtLjE5LjE1LS4zOS4yOS0uNTkuNDNsLS4yMy4xOGMtLjI1LjE4LS41MS4zNC0uNzcuNWwtLjMzLjJjLS4yMy4xMy0uNDYuMjYtLjcuMzhsLS40Ni4yMy0uNjEuMjYtLjYxLjI0LS40OS4xNy0uNzcuMjMtLjM3LjA5LS44OS4xOS0uMywwLS43Mi4xMXYwcS0uNDcsMC0uOTMuMDZWMzlsLjkzLS45MywxLTEsLjg4Ljg4LTEuODQsMS44NC0uNjguNjctLjg4Ljg4LS44OC0uODgtLjY3LS42N0wxNi4yNiwzOGwuODgtLjg4LDEsMUwxOSwzOVYzNi4zcS0uNDcsMC0uOTMtLjA2djBsLS43Mi0uMTEtLjMsMC0uODktLjE5LS4zNy0uMDktLjc3LS4yMy0uNDktLjE3Yy0uMjEtLjA3LS40MS0uMTYtLjYxLS4yNGwtLjYxLS4yNi0uNDYtLjIzYy0uMjQtLjEyLS40Ny0uMjUtLjctLjM4bC0uMzMtLjJjLS4yNi0uMTYtLjUyLS4zMi0uNzctLjVsLS4yMy0uMThjLS4yLS4xNC0uNC0uMjgtLjU5LS40M2gwYTE1LjI1LDE1LjI1LDAsMCwxLTIuMi0yLjJoMGMtLjE1LS4xOS0uMjktLjM5LS40My0uNTlzLS4xMi0uMTUtLjE4LS4yNGMtLjE4LS4yNS0uMzQtLjUtLjUtLjc2LS4wNy0uMTEtLjE0LS4yMi0uMi0uMzNzLS4yNi0uNDctLjM4LS43bC0uMjMtLjQ2Yy0uMDktLjItLjE4LS40MS0uMjYtLjYxcy0uMTctLjQxLS4yNS0uNjEtLjExLS4zMy0uMTYtLjQ5LS4xNi0uNTEtLjIzLS43N2wtLjA5LS4zN2MtLjA3LS4zLS4xMy0uNTktLjE5LS45LDAtLjA5LDAtLjE5LDAtLjI5cy0uMDgtLjQ4LS4xMS0uNzJoMGMwLS4zMSwwLS42Mi0uMDctLjkzSDFWMjAuNzlINC43NmMwLS4zMSwwLS42Mi4wNy0uOTNoMGMwLS4yNC4wNy0uNDguMTEtLjcyczAtLjIsMC0uM2MuMDYtLjMuMTItLjU5LjE5LS44OWwuMDktLjM3Yy4wNy0uMjYuMTUtLjUyLjIzLS43N2wuMTYtLjQ5Yy4wOC0uMjEuMTYtLjQxLjI1LS42MXMuMTctLjQxLjI2LS42MS4xNS0uMzEuMjMtLjQ2LjI0LS40Ny4zOC0uN0EzLjc5LDMuNzksMCwwLDEsNywxMy42Yy4xNi0uMjUuMzItLjUxLjUtLjc2bC4xOC0uMjRjLjE0LS4xOS4yOC0uMzkuNDMtLjU4aDBhMTUuMjUsMTUuMjUsMCwwLDEsMi4yLTIuMmgwbC41OC0uNDMuMjQtLjE4Yy4yNS0uMTguNTEtLjM0Ljc3LS41YTMuNjIsMy42MiwwLDAsMSwuMzMtLjJjLjIzLS4xMy40Ni0uMjYuNy0uMzhsLjQ2LS4yM0wxNCw3LjY0bC42MS0uMjUuNDktLjE2TDE1LjgyLDdsLjM3LS4wOWMuMy0uMDcuNTktLjE0Ljg5LS4xOWwuMywwLC43Mi0uMTF2MEwxOSw2LjUyVjMuNzlsLS45My45NC0xLDEtLjg4LS44OEwxOC4xLDNsMC0uMDUsMS41LTEuNTFtMC0xLjQxTDE5LC43MWwtMS41LDEuNS0uMDYsMEwxNS41NSw0LjFsLS43LjcxLjcuNzEuNDIuNDFoMGwtLjExLDBMMTUuNTYsNmwtLjgyLjI1LS4wNSwwLS40Ny4xNS0uNjYuMjZMMTIuOTIsN2wtLjQyLjIxLS4wNywwYy0uMjYuMTMtLjUxLjI2LS43NS40bC0uMjYuMTYtLjEuMDZjLS4yNy4xNy0uNTQuMzQtLjgxLjUzYTEuMDksMS4wOSwwLDAsMC0uMTcuMTNsLS4wOS4wNi0uMTYuMTJMOS42Myw5bC0uODUuNjksMCwwYy0uMjguMjYtLjU1LjUyLS44MS44bDAsMC0uNzEuODQtLjM0LjQ1TDYuODIsMTJsLS4wNi4wOWExLjA5LDEuMDksMCwwLDAtLjEzLjE3Yy0uMTkuMjctLjM2LjU0LS41My44MWwwLC4wOS0uMTcuMjdjLS4xNC4yNC0uMjcuNDktLjQuNzVzLS4xNy4zMy0uMjUuNDktLjE5LjQzLS4yOC42NC0uMTcuNDQtLjI1LjY2LS4xMS4zMS0uMTYuNDZsMCwuMDZjLS4wOS4yNy0uMTcuNTQtLjI1LjgyLDAsLjEsMCwuMi0uMDcuM2wwLC4xYy0uMDguMzEtLjE1LjYzLS4yLDFsMCwuMjEsMCwuMSwwLC4yMWMwLC4xOS0uMDYuMzctLjA4LjU3djBIMFYyM0gzLjgxdjBjMCwuMTkuMDUuMzguMDguNTdsMCwuMkw0LDI0bDAsLjJjLjA1LjMzLjEyLjY0LjIsMWwwLC4xYzAsLjEsMCwuMi4wNy4zLjA4LjI4LjE2LjU1LjI1LjgybDAsMCwuMTUuNDhjLjA5LjIyLjE3LjQ0LjI2LjY1cy4xOC40NC4yOC42NWwuMjMuNDVjLjE1LjI5LjI4LjU1LjQyLjc5bC4xNi4yNi4wNi4xYy4xNy4yNy4zNC41NC41My44MWwuMTMuMTguMDYuMDguMTIuMTZjLjExLjE2LjIyLjMxLjM0LjQ2bC43Ljg1LDAsMHEuMzkuNDIuODEuODFsMCwwLC44My43LjQ1LjM0LjE3LjEyLjA5LjA3LjE2LjEyYy4yNy4xOS41NS4zNi44Mi41M2wuMDkuMDUuMjYuMTZjLjI1LjE1LjUuMjguNzYuNDFsLjA1LDAsLjQ0LjIyLjY1LjI4LjY1LjI2LjQ3LjE2LjA1LDBjLjI3LjA5LjU0LjE3LjgyLjI0bC4zLjA4LjEsMGgwbC0uNDIuNDItLjcuNzEuNy43MSwxLjg0LDEuODQuNjguNjcuODguODguNy43MS43MS0uNzEuODgtLjg4LjY4LS42NywxLjgzLTEuODQuNzEtLjcxLS43MS0uNzEtLjQyLS40MmgwbC4xLDAsLjMtLjA4Yy4yOC0uMDcuNTUtLjE1LjgyLS4yNGwuNTEtLjE3LjY3LS4yN2MuMjEtLjA4LjQzLS4xOC42NC0uMjhzLjI5LS4xNC40My0uMjFsLjA2LDBjLjI1LS4xMy41MS0uMjYuNzUtLjQxTDI3LjksMzUsMjgsMzVjLjI3LS4xNy41NC0uMzQuODEtLjUzbC4xOC0uMTMuMDgtLjA2LjE2LS4xMi40Ni0uMzQuODQtLjY5LDAsMGMuMjctLjI2LjU0LS41Mi44LS44bDAsMCwuNzItLjg1Yy4xMi0uMTUuMjMtLjMxLjM1LS40N2wuMTEtLjE1LjA2LS4wOC4xMy0uMThjLjE5LS4yNy4zNi0uNTQuNTMtLjgxbDAtLjA5LjE2LS4yNmMuMTUtLjI1LjI4LS41MS40MS0uNzZzLjE3LS4zNC4yNC0uNDkuMi0uNDMuMjgtLjY1LjE4LS40My4yNi0uNjUuMTEtLjMyLjE2LS40OGwwLS4wNXEuMTQtLjM5LjI0LS44MWMwLS4xLDAtLjIuMDgtLjNsMC0uMWMuMDgtLjMyLjE1LS42My4yLS45NWwwLS4yMiwwLS4xLDAtLjJjMC0uMTkuMDYtLjM4LjA4LS41N3YwaDMuODFWMTkuNzlIMzUuNDl2MGMwLS4yLS4wNS0uMzgtLjA4LS41N2wwLS4yLDAtLjEsMC0uMjJjMC0uMzItLjEyLS42My0uMi0xbDAtLjExYzAtLjEsMC0uMTktLjA3LS4yOS0uMDctLjI4LS4xNS0uNTUtLjI0LS44MmwwLS4wNWMtLjA1LS4xNi0uMS0uMzEtLjE2LS40N3MtLjE3LS40NC0uMjYtLjY1LS4xOC0uNDQtLjI4LS42NS0uMTQtLjMtLjIyLS40NWMtLjE1LS4zLS4yOC0uNTUtLjQyLS43OWwtLjE2LS4yNi0uMDYtLjFjLS4xNy0uMjctLjM0LS41NC0uNTMtLjgxbC0uMTMtLjE3TDMyLjQ5LDEybC0uMTItLjE2Yy0uMTEtLjE2LS4yMi0uMzEtLjM0LS40NmwtLjctLjg2LDAsMGMtLjI2LS4yOC0uNTMtLjU1LS44LS44bDAsMEwyOS42OCw5bC0uNDYtLjM0LS4xNi0uMTJMMjksOC41MmwtLjE4LS4xM2MtLjI3LS4xOS0uNTQtLjM2LS44Mi0uNTNsLS4wOC0uMDUtLjI3LS4xN2MtLjI0LS4xNC0uNS0uMjctLjc1LS40bC0uMDYsMEwyNi4zOSw3bC0uNjUtLjI4LS42NS0uMjUtLjQ3LS4xNi0uMDUsMEwyMy43NSw2LDIzLjQ1LDZsLS4xLDBoMGwuNDItLjQxLjcxLS43MS0uNzEtLjcxTDIxLjkyLDIuMjZsLS4wNSwwTDIwLjM2LjcxLDE5LjY1LDBaIi8+PHBhdGggY2xhc3M9ImNscy0yIiBkPSJNMjEuMjEsMzV2MS4yNkExNSwxNSwwLDAsMCwzNC41LDIzSDMzLjI1QTEzLjcxLDEzLjcxLDAsMCwxLDIxLjIxLDM1WiIvPjxwYXRoIGNsYXNzPSJjbHMtMiIgZD0iTTYuMDYsMjNINC44MUExNSwxNSwwLDAsMCwxOC4xLDM2LjI2VjM1QTEzLjcxLDEzLjcxLDAsMCwxLDYuMDYsMjNaIi8+PHBhdGggY2xhc3M9ImNscy0yIiBkPSJNMzMuMjUsMTkuODZIMzQuNUExNSwxNSwwLDAsMCwyMS4yMSw2LjU3VjcuODJBMTMuNzMsMTMuNzMsMCwwLDEsMzMuMjUsMTkuODZaIi8+PHBhdGggY2xhc3M9ImNscy0yIiBkPSJNMTguMSw3LjgyVjYuNTdBMTUsMTUsMCwwLDAsNC44MSwxOS44Nkg2LjA2QTEzLjczLDEzLjczLDAsMCwxLDE4LjEsNy44MloiLz48cG9seWdvbiBjbGFzcz0iY2xzLTIiIHBvaW50cz0iMjAuMjggMy43OSAyMS4yMSA0LjczIDIyLjE3IDUuNjkgMjMuMDUgNC44MSAyMS4yMSAyLjk3IDIxLjE2IDIuOTIgMTkuNjUgMS40MSAxOC4xNSAyLjkyIDE4LjEgMi45NyAxNi4yNiA0LjgxIDE3LjE0IDUuNjkgMTguMSA0LjczIDE5LjAzIDMuNzkgMTkuMDMgMzkuMDMgMTguMSAzOC4xIDE3LjE0IDM3LjE0IDE2LjI2IDM4LjAyIDE4LjEgMzkuODYgMTguNzcgNDAuNTMgMTkuNjUgNDEuNDEgMjAuNTMgNDAuNTMgMjEuMjEgMzkuODYgMjMuMDUgMzguMDIgMjIuMTcgMzcuMTQgMjEuMjEgMzguMSAyMC4yOCAzOS4wMyAyMC4yOCAzLjc5Ii8+PHBvbHlnb24gY2xhc3M9ImNscy0yIiBwb2ludHM9IjIyLjcxIDIwLjc5IDIzLjY0IDE5Ljg2IDI0LjYgMTguOSAyMy43MiAxOC4wMiAyMS44OCAxOS44NiAyMC4zMyAyMS40MSAyMS44OCAyMi45NyAyMy43MiAyNC44MSAyNC42IDIzLjkzIDIzLjY0IDIyLjk3IDIyLjcxIDIyLjA0IDM4LjMxIDIyLjA0IDM4LjMxIDIwLjc5IDIyLjcxIDIwLjc5Ii8+PHBvbHlnb24gY2xhc3M9ImNscy0yIiBwb2ludHM9IjE2LjYgMjIuMDQgMTUuNjcgMjIuOTcgMTQuNzEgMjMuOTMgMTUuNTkgMjQuODEgMTguMSAyMi4yOSAxOC45OCAyMS40MSAxOC4xIDIwLjU0IDE1LjU5IDE4LjAyIDE0LjcxIDE4LjkgMTUuNjcgMTkuODYgMTYuNiAyMC43OSAxIDIwLjc5IDEgMjIuMDQgMTYuNiAyMi4wNCIvPjwvZz48L2c+PC9zdmc+;" parent="dV5V6p4PPA7qp1u5CN09-198" vertex="1">
          <mxGeometry x="9" y="-30" width="60.72" height="66" as="geometry" />
        </mxCell>
        <mxCell id="dV5V6p4PPA7qp1u5CN09-201" value="" style="fontColor=#0066CC;verticalAlign=top;verticalLabelPosition=bottom;labelPosition=center;align=center;html=1;outlineConnect=0;fillColor=#CCCCCC;strokeColor=#6881B3;gradientColor=none;gradientDirection=north;strokeWidth=2;shape=mxgraph.networks.router;" parent="1" vertex="1">
          <mxGeometry x="1235" y="474" width="80" height="42.98" as="geometry" />
        </mxCell>
        <mxCell id="dV5V6p4PPA7qp1u5CN09-202" value="Logical CPE" style="text;html=1;align=center;verticalAlign=middle;whiteSpace=wrap;rounded=0;" parent="1" vertex="1">
          <mxGeometry x="1225" y="519" width="100" height="30" as="geometry" />
        </mxCell>
        <mxCell id="dV5V6p4PPA7qp1u5CN09-204" value="" style="endArrow=classic;startArrow=classic;html=1;rounded=0;" parent="1" edge="1">
          <mxGeometry width="50" height="50" relative="1" as="geometry">
            <mxPoint x="900" y="490" as="sourcePoint" />
            <mxPoint x="1230" y="490" as="targetPoint" />
          </mxGeometry>
        </mxCell>
        <mxCell id="dV5V6p4PPA7qp1u5CN09-205" value="" style="endArrow=classic;startArrow=classic;html=1;rounded=0;" parent="1" edge="1">
          <mxGeometry width="50" height="50" relative="1" as="geometry">
            <mxPoint x="900.72" y="500" as="sourcePoint" />
            <mxPoint x="1230.72" y="501" as="targetPoint" />
            <Array as="points">
              <mxPoint x="1040.72" y="501" />
            </Array>
          </mxGeometry>
        </mxCell>
        <mxCell id="dV5V6p4PPA7qp1u5CN09-206" value="" style="endArrow=classic;startArrow=classic;html=1;rounded=0;" parent="1" edge="1">
          <mxGeometry width="50" height="50" relative="1" as="geometry">
            <mxPoint x="449.86" y="491.76" as="sourcePoint" />
            <mxPoint x="640" y="492" as="targetPoint" />
          </mxGeometry>
        </mxCell>
        <mxCell id="dV5V6p4PPA7qp1u5CN09-207" value="" style="endArrow=classic;startArrow=classic;html=1;rounded=0;" parent="1" target="dV5V6p4PPA7qp1u5CN09-170" edge="1">
          <mxGeometry width="50" height="50" relative="1" as="geometry">
            <mxPoint x="1447.5" y="491" as="sourcePoint" />
            <mxPoint x="1657.5" y="491" as="targetPoint" />
          </mxGeometry>
        </mxCell>
        <mxCell id="dV5V6p4PPA7qp1u5CN09-208" value="" style="endArrow=classic;startArrow=classic;html=1;rounded=0;" parent="1" edge="1">
          <mxGeometry width="50" height="50" relative="1" as="geometry">
            <mxPoint x="1310" y="491.76" as="sourcePoint" />
            <mxPoint x="1380" y="492" as="targetPoint" />
          </mxGeometry>
        </mxCell>
        <mxCell id="dV5V6p4PPA7qp1u5CN09-210" value="" style="endArrow=classic;startArrow=classic;html=1;rounded=0;entryX=0.063;entryY=0.413;entryDx=0;entryDy=0;entryPerimeter=0;" parent="1" edge="1">
          <mxGeometry width="50" height="50" relative="1" as="geometry">
            <mxPoint x="740.49" y="495.97" as="sourcePoint" />
            <mxPoint x="845.4653600000001" y="494.98800000000006" as="targetPoint" />
          </mxGeometry>
        </mxCell>
        <mxCell id="dV5V6p4PPA7qp1u5CN09-211" value="Site to Site IPSec VPN with OCI with LibreSwan and BGP with FRR" style="text;strokeColor=none;fillColor=none;html=1;fontSize=24;fontStyle=1;verticalAlign=middle;align=center;" parent="1" vertex="1">
          <mxGeometry x="1030" y="100" width="100" height="40" as="geometry" />
        </mxCell>
        <mxCell id="dV5V6p4PPA7qp1u5CN09-212" value="&lt;font style=&quot;font-size: 14px;&quot;&gt;Onprem compute A should be able to ping compute B and viceversa&lt;/font&gt;" style="text;html=1;align=center;verticalAlign=middle;whiteSpace=wrap;rounded=0;" parent="1" vertex="1">
          <mxGeometry x="818.75" y="800" width="535" height="30" as="geometry" />
        </mxCell>
      </root>
    </mxGraphModel>
  </diagram>
</mxfile>
